<svg xmlns="http://www.w3.org/2000/svg" width="96" height="96" viewBox="0 0 96 96">
<g>
<path d="M 575.00 577.82 C570.33,584.52 566.02,590.00 565.44,590.00 C563.71,590.00 561.00,587.64 559.68,584.98 C558.95,583.52 555.69,581.10 551.72,579.08 C548.02,577.19 545.00,575.25 545.00,574.77 C545.00,574.28 546.46,571.92 548.25,569.53 C551.10,565.73 557.59,556.61 580.00,524.95 C583.03,520.68 587.75,513.96 590.50,510.02 C593.25,506.08 598.45,498.73 602.06,493.68 C605.67,488.63 612.08,479.62 616.30,473.65 L 623.97 462.79 L 606.86 437.46 C595.85,421.17 589.95,411.57 590.34,410.56 C590.84,409.24 593.26,409.00 605.93,409.00 C620.48,409.00 620.96,409.07 622.08,411.25 C622.71,412.49 627.11,420.39 631.85,428.82 L 640.49 444.14 L 642.49 441.67 C643.60,440.31 647.13,435.44 650.33,430.85 C653.54,426.26 660.48,416.42 665.76,409.00 C671.03,401.58 677.66,392.12 680.48,388.00 C683.30,383.88 690.06,374.20 695.49,366.50 C700.92,358.80 709.25,346.88 713.99,340.00 C728.87,318.44 732.38,313.52 733.46,312.76 C734.05,312.34 735.75,313.55 737.39,315.56 C740.94,319.92 746.76,323.00 751.46,323.00 L 751.66 323.00 C753.44,323.00 754.38,323.00 754.69,323.44 C755.05,323.95 754.60,325.02 753.65,327.30 L 753.55 327.53 C752.75,329.44 752.31,331.00 752.57,331.00 C752.82,331.00 751.84,332.80 750.38,335.00 C748.93,337.20 747.40,339.00 746.98,339.00 C746.57,339.00 746.01,339.79 745.74,340.75 C745.27,342.42 737.89,353.09 721.36,376.00 C714.36,385.70 679.03,435.71 665.79,454.66 L 660.08 462.82 L 671.29 478.91 C672.94,481.28 674.47,483.47 675.89,485.52 C693.22,510.39 695.05,513.02 694.47,514.92 C694.36,515.30 694.14,515.65 693.94,516.15 L 692.76 519.00 L 680.13 518.98 C673.18,518.98 667.00,518.64 666.39,518.23 C665.79,517.83 661.80,512.10 657.53,505.50 C645.27,486.55 642.81,483.00 641.95,483.00 C641.23,483.00 624.25,506.71 606.92,531.93 C600.75,540.91 596.02,547.70 575.00,577.82 ZM 290.43 519.48 C285.03,520.88 271.15,521.34 265.00,520.31 C248.59,517.57 232.08,505.35 225.27,490.93 C220.62,481.07 219.68,476.61 219.59,464.00 C219.51,454.48 219.90,451.31 221.82,445.59 C225.54,434.47 228.86,428.90 235.72,422.27 C246.99,411.35 258.99,407.03 278.00,407.04 C309.27,407.06 333.05,431.65 332.99,463.91 C332.97,471.71 330.98,482.23 328.64,486.88 C327.92,488.32 326.31,491.60 325.07,494.17 C322.97,498.49 321.40,500.30 312.12,509.01 C308.14,512.75 298.63,517.34 290.43,519.48 ZM 840.18 517.77 C831.52,520.96 813.49,521.83 805.00,519.47 C788.49,514.86 776.10,504.87 769.12,490.51 C758.15,467.95 762.02,440.28 778.50,423.46 C785.90,415.91 791.29,412.70 802.03,409.49 C811.15,406.76 819.67,406.34 831.50,408.05 C856.58,411.66 875.36,433.43 876.73,460.50 C878.08,487.05 864.12,508.93 840.18,517.77 ZM 544.74 519.43 C532.60,522.52 516.35,522.13 505.50,518.48 C479.86,509.85 465.94,488.38 467.27,459.50 C468.29,437.47 479.03,420.35 497.39,411.52 C508.16,406.34 524.76,404.60 539.92,407.06 C547.84,408.34 559.62,413.66 563.22,417.58 C576.53,432.05 579.58,439.13 580.67,458.06 C581.09,465.31 580.91,469.30 580.10,470.81 L 578.93 473.00 L 537.52 473.00 C511.85,473.00 495.89,473.37 495.52,473.97 C494.43,475.73 499.19,484.96 502.83,488.16 C514.94,498.79 536.11,499.73 551.71,490.33 L 557.46 486.87 L 565.25 494.95 C572.91,502.89 573.01,503.06 571.44,505.46 C568.35,510.17 556.26,516.49 544.74,519.43 ZM 370.17 517.87 C369.25,518.35 363.49,518.81 357.37,518.91 C347.93,519.05 346.15,518.83 345.62,517.46 C345.28,516.57 345.00,491.80 345.00,462.42 L 345.00 409.00 L 368.86 409.00 L 370.04 414.75 C370.68,417.91 371.38,421.08 371.59,421.78 C371.82,422.59 373.98,421.41 377.53,418.52 C385.57,411.97 391.61,409.23 400.40,408.14 C416.93,406.09 430.64,410.48 440.17,420.89 C447.32,428.70 449.80,434.01 453.02,448.50 C453.51,450.70 453.93,466.96 453.96,484.63 C453.99,510.90 453.75,516.97 452.61,517.91 C451.68,518.68 447.25,518.97 439.36,518.78 L 427.50 518.50 L 426.50 451.50 L 423.87 445.89 C419.71,437.03 411.76,432.13 401.36,432.04 C389.59,431.94 380.28,437.91 375.15,448.84 L 372.50 454.50 L 372.17 485.76 C371.88,513.77 371.68,517.10 370.17,517.87 ZM 914.26 517.75 C912.67,518.96 895.84,519.38 891.75,518.31 C890.11,517.88 890.00,514.42 890.00,463.43 L 890.00 409.00 L 913.77 409.00 L 914.46 415.50 C914.85,419.08 915.61,422.00 916.15,422.00 C916.70,422.00 919.25,420.25 921.82,418.11 C943.18,400.34 974.46,404.62 989.12,427.31 C991.26,430.62 994.02,436.52 995.25,440.42 C997.40,447.20 997.49,449.01 997.50,483.00 L 997.50 518.50 L 984.25 518.78 L 971.00 519.06 L 971.00 488.08 C971.00,469.56 970.56,455.06 969.91,452.03 C968.49,445.38 963.38,438.08 958.08,435.13 C949.24,430.20 934.59,431.54 926.80,438.00 C924.68,439.76 921.68,443.94 919.80,447.76 L 916.50 454.45 L 916.21 485.48 C915.94,512.89 915.72,516.65 914.26,517.75 ZM 193.18 518.76 C187.99,520.67 184.04,521.31 175.50,521.60 C162.15,522.05 154.37,520.50 144.19,515.36 C124.04,505.18 113.56,484.59 115.34,458.69 C116.84,436.89 126.79,420.78 144.06,412.23 C155.39,406.62 178.58,403.97 185.36,407.51 C186.94,408.33 189.54,409.00 191.15,409.00 C195.03,409.00 202.46,412.86 207.93,417.71 L 212.36 421.64 L 208.32 426.07 C206.10,428.51 202.44,432.52 200.20,435.00 L 196.12 439.50 L 193.31 437.70 C186.22,433.14 183.71,432.50 173.00,432.50 C163.42,432.50 162.11,432.73 158.00,435.16 C151.90,438.77 147.55,443.51 144.83,449.50 C142.97,453.57 142.54,456.28 142.52,464.07 C142.50,472.77 142.77,474.18 145.52,479.54 C153.85,495.83 176.72,501.15 192.47,490.45 C194.54,489.05 196.80,488.03 197.49,488.20 C198.17,488.36 202.46,492.01 207.01,496.30 L 215.28 504.10 L 212.41 507.09 C208.25,511.44 200.82,515.95 193.18,518.76 ZM 809.75 494.57 C814.85,496.39 824.67,496.33 830.21,494.45 C836.97,492.14 842.46,486.90 846.18,479.19 C849.00,473.36 849.41,471.47 849.41,464.50 C849.40,445.23 837.65,431.99 820.55,432.01 C816.67,432.01 811.82,432.48 809.78,433.05 C803.88,434.68 798.01,439.86 794.24,446.76 C784.49,464.56 792.20,488.31 809.75,494.57 ZM 265.03 494.32 C272.06,496.90 284.42,496.11 290.20,492.73 C296.36,489.12 300.37,484.28 302.99,477.33 C306.08,469.09 306.52,462.71 304.52,455.04 C301.94,445.14 296.55,438.19 288.50,434.38 C282.71,431.65 271.09,431.16 264.83,433.40 C249.53,438.86 242.25,458.71 248.66,477.51 C250.81,483.83 258.81,492.05 265.03,494.32 ZM 750.00 409.00 L 750.00 519.04 L 737.98 518.93 C728.80,518.85 725.62,518.48 724.48,517.34 C723.21,516.07 723.00,509.12 723.01,469.18 C723.01,443.51 723.30,419.46 723.65,415.75 L 724.29 409.00 ZM 1026.85 408.91 C1018.51,413.08 1013.62,412.92 1004.31,408.16 C994.74,403.27 989.35,390.19 992.48,379.43 C994.03,374.09 996.09,371.54 998.89,371.52 C999.77,371.51 1000.51,370.83 1000.53,370.00 C1000.65,363.24 1016.90,359.50 1026.75,363.97 C1029.09,365.03 1031.00,366.30 1031.00,366.79 C1031.00,367.28 1032.07,368.17 1033.37,368.76 C1037.14,370.47 1041.00,379.32 1041.00,386.23 C1041.00,396.73 1036.37,404.16 1026.85,408.91 ZM 1008.50 405.60 C1012.42,407.33 1020.22,407.35 1024.28,405.65 C1030.81,402.92 1036.98,393.57 1036.99,386.38 C1037.01,379.90 1031.69,371.51 1025.50,368.24 C1020.60,365.65 1011.43,366.15 1005.50,369.33 C1002.75,370.80 1000.46,372.34 1000.42,372.75 C1000.37,373.16 999.37,375.52 998.19,378.00 C997.01,380.48 996.04,384.30 996.04,386.50 C996.04,393.92 1001.71,402.61 1008.50,405.60 ZM 821.71 571.49 C813.48,573.94 806.68,573.04 800.01,568.63 C794.40,564.91 792.70,561.10 793.19,553.35 C793.67,545.77 795.75,542.46 802.02,539.25 C808.00,536.20 819.53,536.09 825.43,539.03 C832.18,542.39 836.04,550.65 834.55,558.56 C833.56,563.89 827.79,569.69 821.71,571.49 ZM 736.61 571.52 C728.25,574.01 720.27,572.83 714.06,568.20 C706.42,562.51 705.30,549.86 711.79,542.68 C712.73,541.64 715.25,539.89 717.39,538.80 C722.87,536.00 737.48,536.48 741.68,539.59 C746.67,543.29 749.00,547.75 749.00,553.58 C749.00,563.26 745.02,569.03 736.61,571.52 ZM 927.54 570.55 C925.08,571.57 920.10,572.00 910.53,572.00 L 897.00 572.00 L 897.00 537.00 L 909.75 537.06 C916.85,537.09 924.04,537.64 925.99,538.31 C932.13,540.41 933.60,547.40 928.89,552.11 C927.76,553.24 926.98,554.24 927.17,554.33 C934.61,558.05 934.83,567.50 927.54,570.55 ZM 496.45 448.25 L 495.78 451.00 L 554.26 451.00 L 553.66 447.27 C552.76,441.73 548.25,436.02 542.50,433.13 C532.30,428.01 513.47,429.37 505.34,435.82 C501.26,439.05 497.37,444.49 496.45,448.25 ZM 840.70 380.34 L 829.73 394.00 L 809.23 394.00 L 808.71 391.25 C808.30,389.14 809.84,385.43 815.34,375.27 L 822.50 362.04 L 836.63 362.02 C850.66,362.00 850.77,362.02 851.21,364.34 C851.56,366.16 849.21,369.73 840.70,380.34 ZM 745.75 397.85 C741.51,400.47 733.98,400.69 729.21,398.33 C727.35,397.42 724.79,394.79 723.33,392.31 C721.21,388.68 720.84,387.02 721.24,382.88 C722.06,374.28 728.08,368.99 737.00,369.02 C745.88,369.05 753.02,375.74 752.98,384.00 C752.95,389.23 749.74,395.38 745.75,397.85 ZM 962.62 568.00 C960.92,572.24 960.14,572.74 958.20,570.80 C955.96,568.56 957.10,563.53 962.82,550.50 L 968.52 537.50 L 974.60 537.21 C978.69,537.01 981.02,537.34 981.71,538.21 C983.62,540.63 994.33,566.49 994.22,568.41 C994.10,570.37 992.38,571.96 990.36,571.98 C989.73,571.99 988.50,570.20 987.62,568.00 L 986.02 564.00 L 964.22 564.00 ZM 887.00 537.00 L 887.00 572.00 L 880.00 572.00 L 880.00 560.00 C880.00,553.40 879.59,548.00 879.09,548.00 C878.58,548.00 876.86,549.79 875.25,551.98 C867.78,562.13 862.75,562.57 855.48,553.74 C852.88,550.58 850.36,548.00 849.88,548.00 C849.39,548.00 849.00,552.90 849.00,558.88 C849.00,568.41 848.78,569.82 847.25,570.22 C843.25,571.26 843.00,570.38 843.00,555.00 C843.00,546.84 843.27,539.45 843.61,538.58 C843.99,537.59 845.39,537.01 847.36,537.04 C850.12,537.07 851.33,538.15 857.38,546.04 C861.16,550.97 864.38,555.00 864.54,555.00 C864.70,555.00 868.05,550.95 872.00,546.00 C878.84,537.42 879.36,537.00 883.09,537.00 ZM 720.19 564.97 C722.36,566.30 725.25,566.99 728.60,567.00 C738.52,567.00 744.92,559.19 741.93,550.73 C741.14,548.50 739.30,545.79 737.82,544.70 C734.21,542.03 726.45,541.37 721.74,543.33 C717.76,545.00 714.01,550.06 714.00,553.78 C714.00,557.84 716.80,562.91 720.19,564.97 ZM 807.42 566.03 C808.56,566.49 811.57,566.90 814.10,566.94 C820.25,567.02 825.02,563.83 826.93,558.33 C828.95,552.54 826.54,546.10 821.45,543.68 C817.15,541.63 811.08,541.52 806.55,543.42 C801.43,545.56 799.52,549.36 799.89,556.67 C800.02,559.28 804.51,564.85 807.42,566.03 ZM 697.50 572.18 C685.86,574.24 676.45,572.10 670.54,566.04 C666.93,562.34 666.57,561.48 666.26,555.75 C665.82,547.61 668.52,542.51 675.00,539.22 C678.94,537.23 680.75,536.98 689.50,537.22 C698.88,537.48 699.48,537.62 699.15,539.50 C698.97,540.60 698.64,541.68 698.43,541.90 C698.21,542.11 694.66,542.20 690.53,542.09 C681.75,541.86 676.70,543.74 674.46,548.09 C672.71,551.47 672.56,557.31 674.16,560.32 C677.20,566.06 681.86,567.57 693.97,566.74 L 701.70 566.21 L 701.60 568.84 C701.51,571.10 700.93,571.57 697.50,572.18 ZM 787.82 569.28 C787.51,571.43 787.09,571.51 773.79,571.78 C773.05,571.79 772.34,571.81 771.66,571.82 C764.66,571.98 760.96,572.07 759.04,570.26 C756.88,568.25 756.93,563.88 757.03,554.64 C757.04,553.83 757.04,552.99 757.05,552.11 L 757.19 537.00 L 763.95 537.00 L 764.50 566.50 L 776.32 566.78 C787.87,567.06 788.12,567.11 787.82,569.28 ZM 1012.00 393.88 C1012.00,396.97 1010.27,399.01 1008.25,398.28 C1007.35,397.96 1007.00,394.64 1007.00,386.42 L 1007.00 375.00 L 1014.55 375.00 C1021.22,375.00 1022.37,375.28 1024.55,377.45 C1027.69,380.60 1027.67,384.42 1024.50,387.59 C1021.81,390.28 1021.39,391.99 1023.04,393.64 C1023.77,394.37 1023.64,395.06 1022.62,395.90 C1021.41,396.90 1020.74,396.57 1018.89,394.06 C1015.82,389.92 1012.00,389.82 1012.00,393.88 ZM 946.99 570.02 C946.37,571.17 944.90,572.00 943.46,572.00 L 941.00 572.00 L 941.00 536.87 L 947.50 537.50 L 947.78 552.77 C947.95,562.16 947.64,568.80 946.99,570.02 ZM 903.67 566.33 C904.85,567.52 920.41,567.01 923.00,565.71 C925.80,564.30 926.78,560.64 924.95,558.44 C924.05,557.35 921.21,557.00 913.38,557.00 L 903.00 557.00 L 903.00 561.33 C903.00,563.72 903.30,565.97 903.67,566.33 ZM 903.67 551.33 C904.03,551.70 907.98,552.00 912.44,552.00 C921.07,552.00 925.00,550.48 925.00,547.14 C925.00,543.72 922.87,543.00 912.80,543.00 L 903.00 543.00 L 903.00 546.83 C903.00,548.94 903.30,550.97 903.67,551.33 ZM 967.00 558.15 C967.00,558.62 970.81,559.00 975.48,559.00 C976.35,559.00 977.14,559.01 977.86,559.02 C980.84,559.05 982.45,559.07 982.97,558.33 C983.57,557.47 982.71,555.58 980.84,551.49 C980.46,550.65 980.03,549.72 979.57,548.68 C977.43,543.90 976.58,542.92 974.81,543.18 C973.18,543.42 971.95,545.21 969.82,550.40 C968.27,554.20 967.00,557.69 967.00,558.15 ZM 1012.00 382.95 C1012.00,386.99 1012.01,387.00 1015.88,387.00 C1020.26,387.00 1022.31,385.21 1021.83,381.81 C1021.55,379.82 1020.84,379.46 1016.75,379.20 L 1012.00 378.89 Z" fill="rgb(1,65,109)"/>
<path d="M 750.58 334.70 C751.93,332.64 752.81,331.00 752.57,331.00 C752.31,331.00 752.75,329.44 753.55,327.53 L 753.65 327.30 C754.60,325.02 755.05,323.95 754.69,323.44 C754.38,323.00 753.44,323.00 751.66,323.00 L 751.46 323.00 C746.76,323.00 740.94,319.92 737.39,315.56 C735.75,313.55 734.05,312.34 733.46,312.76 C732.68,313.31 730.66,316.00 724.07,325.45 C725.80,322.93 727.56,320.38 729.33,317.80 L 735.31 309.09 L 738.10 313.50 C741.61,319.03 747.15,322.00 753.96,322.00 C756.73,322.00 759.00,322.23 759.00,322.52 C759.00,323.02 754.02,330.11 750.58,334.70 ZM 849.00 560.00 L 849.00 572.00 L 842.00 572.00 L 842.00 537.00 L 846.25 537.04 C846.46,537.04 846.67,537.04 846.86,537.04 C845.15,537.12 843.95,537.68 843.61,538.58 C843.27,539.45 843.00,546.84 843.00,555.00 C843.00,570.38 843.25,571.26 847.25,570.22 C848.78,569.82 849.00,568.41 849.00,558.88 C849.00,554.76 849.19,551.16 849.46,549.31 C849.19,551.30 849.00,555.35 849.00,560.00 ZM 569.51 585.35 C565.70,590.61 563.13,594.00 562.90,594.00 C562.49,594.00 561.66,592.51 561.06,590.68 C559.59,586.22 554.63,581.60 548.31,578.80 L 543.12 576.50 L 547.28 570.88 C545.96,572.75 545.00,574.37 545.00,574.77 C545.00,575.25 548.02,577.19 551.72,579.08 C555.69,581.10 558.95,583.52 559.68,584.98 C561.00,587.64 563.71,590.00 565.44,590.00 C565.78,590.00 567.35,588.18 569.51,585.35 ZM 698.25 542.92 C696.52,542.52 694.54,542.26 692.52,542.13 C695.74,542.17 698.25,542.08 698.43,541.90 C698.64,541.68 698.97,540.60 699.15,539.50 C699.48,537.62 698.88,537.48 689.50,537.22 C686.37,537.14 684.12,537.11 682.35,537.21 C684.38,537.05 687.00,537.00 690.71,537.00 L 702.00 537.00 L 702.00 543.79 ZM 856.00 554.35 C862.99,562.55 867.96,561.88 875.25,551.98 C876.86,549.79 878.58,548.00 879.09,548.00 C879.09,548.00 879.10,548.00 879.10,548.00 C878.56,548.09 875.81,551.21 872.93,555.00 C868.25,561.15 867.21,562.00 864.34,562.00 C861.97,562.00 860.74,561.38 859.87,559.75 C859.21,558.51 857.68,556.42 856.00,554.35 ZM 959.64 571.84 C959.07,571.97 958.35,572.00 957.39,572.00 C957.13,572.00 956.88,572.00 956.64,572.01 C955.68,572.03 954.99,572.04 954.65,571.70 C953.78,570.83 955.18,567.67 960.17,556.43 C960.65,555.36 961.16,554.22 961.70,553.00 L 963.77 548.31 L 962.82 550.50 C957.10,563.53 955.96,568.56 958.20,570.80 C958.76,571.36 959.22,571.72 959.64,571.84 ZM 1022.20 390.81 C1022.19,391.74 1023.09,392.67 1024.96,394.47 C1026.59,396.03 1027.69,397.69 1027.41,398.15 C1026.35,399.86 1023.69,399.02 1020.87,396.23 C1021.48,396.59 1021.97,396.44 1022.62,395.90 C1023.64,395.06 1023.77,394.37 1023.04,393.64 C1022.16,392.76 1021.87,391.86 1022.20,390.81 ZM 692.90 518.66 L 693.94 516.15 C694.14,515.65 694.36,515.30 694.47,514.92 C694.81,513.80 694.32,512.43 690.31,506.41 C692.50,509.51 694.36,512.09 695.24,513.23 C696.84,515.29 697.86,517.42 697.51,517.98 C697.34,518.26 695.54,518.49 692.90,518.66 ZM 985.13 545.10 C986.42,547.96 988.08,551.88 990.41,557.25 L 996.81 572.00 L 993.01 572.00 C992.21,572.00 991.58,571.98 991.05,571.91 C992.76,571.58 994.11,570.14 994.22,568.41 C994.30,567.05 988.94,553.65 985.13,545.10 ZM 605.50 409.00 C593.20,409.01 590.84,409.26 590.34,410.56 C589.99,411.46 594.69,419.27 603.60,432.62 C601.10,428.93 598.71,425.43 596.82,422.68 C591.97,415.63 588.00,409.66 588.00,409.43 C588.00,409.19 595.41,409.00 604.46,409.00 ZM 845.17 374.67 C850.06,368.34 851.49,365.78 851.21,364.34 C850.88,362.59 850.74,362.15 844.69,362.05 C852.81,362.12 854.91,362.43 854.28,363.25 C853.85,363.80 850.04,368.59 845.17,374.67 ZM 1004.21 364.97 C1001.98,366.30 1000.56,368.02 1000.53,370.00 C1000.51,370.83 999.77,371.51 998.89,371.52 C997.11,371.53 995.63,372.56 994.39,374.68 C996.63,370.50 1000.04,367.16 1004.21,364.97 ZM 757.00 561.11 C757.06,566.07 757.46,568.79 759.04,570.26 C760.34,571.48 762.43,571.84 765.80,571.89 L 756.92 572.05 ZM 821.31 364.24 L 815.34 375.27 C809.84,385.43 808.30,389.14 808.71,391.25 L 809.16 393.64 C807.65,393.49 806.68,393.30 806.56,393.10 C806.25,392.60 809.71,385.41 814.25,377.13 ZM 182.66 406.58 C188.81,407.03 191.05,407.76 196.35,410.29 C196.50,410.36 196.65,410.44 196.81,410.52 C194.61,409.56 192.62,409.00 191.15,409.00 C189.54,409.00 186.94,408.33 185.36,407.51 C184.64,407.13 183.73,406.82 182.66,406.58 ZM 1008.51 368.03 C1004.46,369.58 1001.22,372.41 998.91,376.45 C999.75,374.61 1000.38,373.08 1000.42,372.75 C1000.46,372.34 1002.75,370.80 1005.50,369.33 C1006.43,368.83 1007.45,368.40 1008.51,368.03 ZM 126.11 427.07 C119.86,435.48 116.20,446.14 115.34,458.69 C116.24,445.55 119.66,435.40 126.11,427.07 ZM 147.70 410.67 C153.29,408.39 159.45,407.00 166.30,406.45 C159.85,407.20 153.05,408.67 147.70,410.67 ZM 1027.08 369.20 C1024.17,367.37 1020.96,366.65 1016.50,366.65 C1015.86,366.65 1015.24,366.68 1014.62,366.72 C1018.71,366.31 1022.77,366.80 1025.50,368.24 C1026.04,368.52 1026.56,368.84 1027.08,369.20 ZM 996.04 386.50 C996.04,385.77 996.15,384.85 996.34,383.86 C995.93,387.21 996.44,390.68 997.68,393.89 C996.64,391.45 996.04,388.91 996.04,386.50 ZM 1026.65 363.93 C1023.67,362.87 1019.69,362.04 1016.50,362.03 C1016.24,362.03 1015.98,362.03 1015.71,362.04 C1019.51,361.92 1023.42,362.49 1026.65,363.93 ZM 740.16 349.57 C743.74,344.37 745.52,341.54 745.74,340.75 C746.01,339.79 746.57,339.00 746.98,339.00 C747.00,339.00 747.02,339.00 747.05,338.99 C746.54,339.58 746.04,340.38 745.79,341.00 C745.54,341.66 743.53,344.69 740.16,349.57 ZM 1018.89 394.06 C1016.79,391.86 1014.93,390.80 1013.68,390.96 C1015.07,390.61 1017.11,391.65 1018.89,394.06 ZM 1034.03 376.84 C1035.86,379.97 1037.00,383.38 1036.99,386.38 C1037.00,383.95 1035.71,380.06 1034.03,376.84 ZM 1026.65 363.93 C1029.18,364.83 1031.00,365.91 1031.00,366.79 C1031.00,366.30 1029.09,365.03 1026.75,363.97 C1026.72,363.96 1026.68,363.94 1026.65,363.93 ZM 673.67 550.11 C673.88,549.38 674.14,548.69 674.46,548.09 C675.42,546.22 676.90,544.81 678.96,543.83 C676.40,545.17 674.58,547.35 673.67,550.11 ZM 674.80 483.95 C673.69,482.36 672.52,480.68 671.29,478.91 L 660.08 462.82 L 660.10 462.79 L 668.70 475.14 C670.47,477.70 672.61,480.78 674.80,483.95 ZM 616.04 451.05 L 623.97 462.79 L 623.93 462.85 ZM 548.65 568.99 C551.97,564.42 558.82,554.82 566.28,544.32 C555.33,559.77 550.93,565.92 548.65,568.99 ZM 679.00 565.32 C676.87,564.25 675.38,562.63 674.16,560.32 C673.64,559.34 673.31,558.06 673.15,556.67 C673.71,560.55 675.79,563.60 679.00,565.32 ZM 641.95 483.00 C641.69,483.00 637.81,488.16 632.82,495.01 C638.13,487.64 641.63,483.00 641.95,483.00 ZM 681.40 518.99 C674.24,519.02 667.23,518.79 666.39,518.23 C667.00,518.64 673.18,518.98 680.13,518.98 ZM 849.19 537.33 C851.12,537.94 852.64,539.86 857.38,546.04 C852.80,540.07 850.99,537.99 849.19,537.33 ZM 1011.87 362.41 C1009.12,362.87 1006.55,363.74 1004.21,364.97 C1006.23,363.77 1008.92,362.88 1011.87,362.41 ZM 989.41 571.27 C988.76,570.70 988.30,569.72 987.62,568.00 C988.16,569.35 988.83,570.54 989.41,571.27 ZM 686.23 566.90 C688.52,566.96 691.39,566.92 693.97,566.74 C690.96,566.95 688.41,567.01 686.23,566.90 ZM 206.58 416.57 C207.09,416.96 207.54,417.33 207.93,417.68 L 212.36 421.64 L 207.93 417.71 C207.49,417.32 207.04,416.94 206.58,416.57 ZM 757.17 537.00 L 757.19 537.00 L 757.10 546.69 ZM 994.39 374.68 C993.73,375.93 993.16,377.25 992.72,378.64 C993.22,377.05 993.78,375.73 994.39,374.68 ZM 682.37 542.70 C683.72,542.40 685.24,542.21 686.94,542.13 C685.29,542.23 683.72,542.42 682.37,542.70 ZM 1015.71 362.04 C1014.41,362.08 1013.11,362.21 1011.87,362.41 C1013.12,362.20 1014.40,362.07 1015.71,362.04 ZM 849.86 548.00 C849.87,548.00 849.87,548.00 849.88,548.00 C849.99,548.00 850.21,548.14 850.52,548.39 C850.22,548.15 850.00,548.02 849.86,548.00 Z" fill="rgb(19,74,93)"/>
<path d="M 0.00 454.00 L 0.00 0.00 L 577.50 0.00 L 1155.00 0.00 L 1155.00 454.00 L 1155.00 908.00 L 577.50 908.00 L 0.00 908.00 L 0.00 454.00 ZM 579.52 571.25 C595.57,548.28 609.44,528.30 612.07,524.36 C619.73,512.89 641.33,483.00 641.95,483.00 C642.81,483.00 645.27,486.55 657.53,505.50 C661.80,512.10 665.79,517.83 666.39,518.23 C668.13,519.39 696.79,519.15 697.51,517.98 C697.86,517.42 696.84,515.29 695.24,513.23 C693.65,511.18 688.96,504.55 684.82,498.50 C680.68,492.45 673.42,481.94 668.70,475.14 L 660.10 462.79 L 665.80 454.64 C679.03,435.71 714.37,385.69 721.36,376.00 C735.61,356.25 745.21,342.50 745.79,341.00 C746.11,340.17 746.89,339.05 747.52,338.50 C748.92,337.29 759.00,323.24 759.00,322.52 C759.00,322.23 756.73,322.00 753.96,322.00 C747.15,322.00 741.61,319.03 738.10,313.50 L 735.31 309.09 L 729.33 317.80 C716.82,336.01 705.02,353.00 695.49,366.50 C690.06,374.20 683.30,383.88 680.48,388.00 C677.66,392.12 671.03,401.58 665.76,409.00 C660.48,416.42 653.54,426.26 650.33,430.85 C647.13,435.44 643.60,440.31 642.49,441.67 L 640.49 444.14 L 631.85 428.82 C627.11,420.39 622.71,412.49 622.08,411.25 C620.96,409.05 620.53,409.00 604.46,409.00 C595.41,409.00 588.00,409.19 588.00,409.43 C588.00,409.66 591.97,415.63 596.82,422.68 C601.66,429.73 609.75,441.65 614.78,449.17 L 623.93 462.85 L 616.28 473.67 C612.07,479.63 605.67,488.63 602.06,493.68 C598.45,498.73 593.25,506.08 590.50,510.02 C579.33,526.01 552.16,564.27 547.31,570.83 L 543.12 576.50 L 548.31 578.80 C554.63,581.60 559.59,586.22 561.06,590.68 C561.66,592.51 562.49,594.00 562.90,594.00 C563.30,594.00 570.79,583.76 579.52,571.25 ZM 697.50 572.18 C700.93,571.57 701.51,571.10 701.60,568.84 L 701.70 566.21 L 693.97 566.74 C689.72,567.03 684.67,566.97 682.75,566.61 C676.71,565.48 673.00,560.87 673.00,554.52 C673.00,549.49 675.30,545.56 679.36,543.63 C683.12,541.85 692.18,541.51 698.25,542.92 L 702.00 543.79 L 702.00 540.39 L 702.00 537.00 L 690.71 537.00 C680.99,537.00 678.80,537.31 674.97,539.25 C668.52,542.50 665.82,547.63 666.26,555.75 C666.57,561.48 666.93,562.34 670.54,566.04 C676.45,572.10 685.86,574.24 697.50,572.18 ZM 736.61 571.52 C745.02,569.03 749.00,563.26 749.00,553.58 C749.00,547.75 746.67,543.29 741.68,539.59 C737.48,536.48 722.87,536.00 717.39,538.80 C715.25,539.89 712.73,541.64 711.79,542.68 C705.30,549.86 706.42,562.51 714.06,568.20 C720.27,572.83 728.25,574.01 736.61,571.52 ZM 821.71 571.49 C827.79,569.69 833.56,563.89 834.55,558.56 C836.04,550.65 832.18,542.39 825.43,539.03 C819.53,536.09 808.00,536.20 802.02,539.25 C795.75,542.46 793.67,545.77 793.19,553.35 C792.70,561.10 794.40,564.91 800.01,568.63 C806.68,573.04 813.48,573.94 821.71,571.49 ZM 787.82 569.28 C788.12,567.11 787.87,567.06 776.32,566.78 L 764.50 566.50 L 764.22 551.75 L 763.95 537.00 L 760.56 537.00 L 757.17 537.00 L 757.05 554.53 L 756.92 572.05 L 772.21 571.78 C787.14,571.51 787.51,571.45 787.82,569.28 ZM 849.00 560.00 C849.00,553.40 849.38,548.00 849.84,548.00 C850.86,548.00 858.19,556.59 859.87,559.75 C860.74,561.38 861.97,562.00 864.34,562.00 C867.21,562.00 868.25,561.15 872.93,555.00 C875.86,551.15 878.64,548.00 879.13,548.00 C879.61,548.00 880.00,553.40 880.00,560.00 L 880.00 572.00 L 883.50 572.00 L 887.00 572.00 L 887.00 554.50 L 887.00 537.00 L 883.09 537.00 C879.36,537.00 878.84,537.42 872.00,546.00 C868.05,550.95 864.70,555.00 864.54,555.00 C864.38,555.00 861.16,550.97 857.38,546.04 C850.65,537.26 850.41,537.07 846.25,537.04 L 842.00 537.00 L 842.00 554.50 L 842.00 572.00 L 845.50 572.00 L 849.00 572.00 L 849.00 560.00 ZM 927.54 570.55 C934.83,567.50 934.61,558.05 927.17,554.33 C926.98,554.24 927.76,553.24 928.89,552.11 C933.60,547.40 932.13,540.41 925.99,538.31 C924.04,537.64 916.85,537.09 909.75,537.06 L 897.00 537.00 L 897.00 554.50 L 897.00 572.00 L 910.53 572.00 C920.10,572.00 925.08,571.57 927.54,570.55 ZM 946.99 570.02 C947.64,568.80 947.95,562.16 947.78,552.77 L 947.50 537.50 L 944.25 537.19 L 941.00 536.87 L 941.00 554.44 L 941.00 572.00 L 943.46 572.00 C944.90,572.00 946.37,571.17 946.99,570.02 ZM 962.62 568.00 L 964.22 564.00 L 975.12 564.00 L 986.02 564.00 L 987.62 568.00 C989.09,571.68 989.52,572.00 993.01,572.00 L 996.81 572.00 L 990.41 557.25 C980.99,535.55 982.51,537.50 975.00,537.50 L 968.57 537.50 L 961.70 553.00 C952.70,573.29 952.99,572.00 957.39,572.00 C960.69,572.00 961.16,571.64 962.62,568.00 ZM 193.18 518.76 C200.82,515.95 208.25,511.44 212.41,507.09 L 215.28 504.10 L 207.01 496.30 C202.46,492.01 198.17,488.36 197.49,488.20 C196.80,488.03 194.54,489.05 192.47,490.45 C176.72,501.15 153.85,495.83 145.52,479.54 C142.77,474.18 142.50,472.77 142.52,464.07 C142.54,456.28 142.97,453.57 144.83,449.50 C147.55,443.51 151.90,438.77 158.00,435.16 C162.11,432.73 163.42,432.50 173.00,432.50 C183.71,432.50 186.22,433.14 193.31,437.70 L 196.12 439.50 L 200.20 435.00 C202.44,432.52 206.10,428.51 208.32,426.07 L 212.36 421.64 L 207.93 417.68 C205.49,415.50 200.28,412.17 196.35,410.29 C189.97,407.24 188.03,406.81 178.35,406.32 C158.26,405.31 143.41,410.00 131.56,421.10 C121.55,430.47 116.47,442.24 115.34,458.69 C113.56,484.59 124.04,505.18 144.19,515.36 C154.37,520.50 162.15,522.05 175.50,521.60 C184.04,521.31 187.99,520.67 193.18,518.76 ZM 544.74 519.43 C556.26,516.49 568.35,510.17 571.44,505.46 C573.01,503.06 572.91,502.89 565.25,494.95 L 557.46 486.87 L 551.71 490.33 C536.11,499.73 514.94,498.79 502.83,488.16 C499.19,484.96 494.43,475.73 495.52,473.97 C495.89,473.37 511.85,473.00 537.52,473.00 L 578.93 473.00 L 580.10 470.81 C580.91,469.30 581.09,465.31 580.67,458.06 C579.58,439.13 576.53,432.05 563.22,417.58 C559.62,413.66 547.84,408.34 539.92,407.06 C524.76,404.60 508.16,406.34 497.39,411.52 C479.03,420.35 468.29,437.47 467.27,459.50 C465.94,488.38 479.86,509.85 505.50,518.48 C516.35,522.13 532.60,522.52 544.74,519.43 ZM 290.43 519.48 C298.63,517.34 308.14,512.75 312.12,509.01 C321.40,500.30 322.97,498.49 325.07,494.17 C326.31,491.60 327.92,488.32 328.64,486.88 C330.98,482.23 332.97,471.71 332.99,463.91 C333.05,431.65 309.27,407.06 278.00,407.04 C258.99,407.03 246.99,411.35 235.72,422.27 C228.86,428.90 225.54,434.47 221.82,445.59 C219.90,451.31 219.51,454.48 219.59,464.00 C219.68,476.61 220.62,481.07 225.27,490.93 C232.08,505.35 248.59,517.57 265.00,520.31 C271.15,521.34 285.03,520.88 290.43,519.48 ZM 840.18 517.77 C864.12,508.93 878.08,487.05 876.73,460.50 C875.36,433.43 856.58,411.66 831.50,408.05 C819.67,406.34 811.15,406.76 802.03,409.49 C791.29,412.70 785.90,415.91 778.50,423.46 C762.02,440.28 758.15,467.95 769.12,490.51 C776.10,504.87 788.49,514.86 805.00,519.47 C813.49,521.83 831.52,520.96 840.18,517.77 ZM 370.17 517.87 C371.68,517.10 371.88,513.77 372.17,485.76 L 372.50 454.50 L 375.15 448.84 C380.28,437.91 389.59,431.94 401.36,432.04 C411.76,432.13 419.71,437.03 423.87,445.89 L 426.50 451.50 L 427.00 485.00 L 427.50 518.50 L 439.36 518.78 C447.25,518.97 451.68,518.68 452.61,517.91 C453.75,516.97 453.99,510.90 453.96,484.63 C453.93,466.96 453.51,450.70 453.02,448.50 C449.80,434.01 447.32,428.70 440.17,420.89 C430.64,410.48 416.93,406.09 400.40,408.14 C391.61,409.23 385.57,411.97 377.53,418.52 C373.98,421.41 371.82,422.59 371.59,421.78 C371.38,421.08 370.68,417.91 370.04,414.75 L 368.86 409.00 L 356.93 409.00 L 345.00 409.00 L 345.00 462.42 C345.00,491.80 345.28,516.57 345.62,517.46 C346.15,518.83 347.93,519.05 357.37,518.91 C363.49,518.81 369.25,518.35 370.17,517.87 ZM 750.00 464.02 L 750.00 409.00 L 737.14 409.00 L 724.29 409.00 L 723.65 415.75 C723.30,419.46 723.01,443.51 723.01,469.18 C723.00,509.12 723.21,516.07 724.48,517.34 C725.62,518.48 728.80,518.85 737.98,518.93 L 750.00 519.04 L 750.00 464.02 ZM 914.26 517.75 C915.72,516.65 915.94,512.89 916.21,485.48 L 916.50 454.45 L 919.80 447.76 C921.68,443.94 924.68,439.76 926.80,438.00 C934.59,431.54 949.24,430.20 958.08,435.13 C963.38,438.08 968.49,445.38 969.91,452.03 C970.56,455.06 971.00,469.56 971.00,488.08 L 971.00 519.06 L 984.25 518.78 L 997.50 518.50 L 997.50 483.00 C997.49,449.01 997.40,447.20 995.25,440.42 C994.02,436.52 991.26,430.62 989.12,427.31 C974.46,404.62 943.18,400.34 921.82,418.11 C919.25,420.25 916.70,422.00 916.15,422.00 C915.61,422.00 914.85,419.08 914.46,415.50 L 913.77 409.00 L 901.88 409.00 L 890.00 409.00 L 890.00 463.43 C890.00,514.42 890.11,517.88 891.75,518.31 C895.84,519.38 912.67,518.96 914.26,517.75 ZM 1026.85 408.91 C1036.37,404.16 1041.00,396.73 1041.00,386.23 C1041.00,379.32 1037.14,370.47 1033.37,368.76 C1032.07,368.17 1031.00,367.28 1031.00,366.79 C1031.00,364.86 1022.40,362.04 1016.50,362.03 C1005.05,362.01 995.55,368.85 992.51,379.30 C989.35,390.19 994.68,403.24 1004.31,408.16 C1013.62,412.92 1018.51,413.08 1026.85,408.91 ZM 745.75 397.85 C749.74,395.38 752.95,389.23 752.98,384.00 C753.02,375.74 745.88,369.05 737.00,369.02 C728.08,368.99 722.06,374.28 721.24,382.88 C720.84,387.02 721.21,388.68 723.33,392.31 C724.79,394.79 727.35,397.42 729.21,398.33 C733.98,400.69 741.51,400.47 745.75,397.85 ZM 841.51 379.25 C848.00,371.14 853.75,363.94 854.28,363.25 C855.04,362.26 851.82,362.01 838.87,362.03 L 822.50 362.06 L 814.25 377.13 C809.71,385.41 806.25,392.60 806.56,393.10 C806.87,393.59 812.20,394.00 818.42,394.00 L 829.71 394.00 L 841.51 379.25 ZM 720.19 564.97 C716.80,562.91 714.00,557.84 714.00,553.78 C714.01,550.06 717.76,545.00 721.74,543.33 C726.45,541.37 734.21,542.03 737.82,544.70 C739.30,545.79 741.14,548.50 741.93,550.73 C744.92,559.19 738.52,567.00 728.60,567.00 C725.25,566.99 722.36,566.30 720.19,564.97 ZM 807.42 566.03 C804.51,564.85 800.02,559.28 799.89,556.67 C799.52,549.36 801.43,545.56 806.55,543.42 C811.08,541.52 817.15,541.63 821.45,543.68 C826.54,546.10 828.95,552.54 826.93,558.33 C825.02,563.83 820.25,567.02 814.10,566.94 C811.57,566.90 808.56,566.49 807.42,566.03 ZM 903.67 566.33 C903.30,565.97 903.00,563.72 903.00,561.33 L 903.00 557.00 L 913.38 557.00 C921.21,557.00 924.05,557.35 924.95,558.44 C926.78,560.64 925.80,564.30 923.00,565.71 C920.41,567.01 904.85,567.52 903.67,566.33 ZM 903.67 551.33 C903.30,550.97 903.00,548.94 903.00,546.83 L 903.00 543.00 L 912.80 543.00 C922.87,543.00 925.00,543.72 925.00,547.14 C925.00,550.48 921.07,552.00 912.44,552.00 C907.98,552.00 904.03,551.70 903.67,551.33 ZM 967.00 558.15 C967.00,557.69 968.27,554.20 969.82,550.40 C971.95,545.21 973.18,543.42 974.81,543.18 C976.58,542.92 977.43,543.90 979.57,548.68 C984.70,560.13 985.14,559.00 975.48,559.00 C970.81,559.00 967.00,558.62 967.00,558.15 ZM 496.45 448.25 C497.37,444.49 501.26,439.05 505.34,435.82 C513.47,429.37 532.30,428.01 542.50,433.13 C548.25,436.02 552.76,441.73 553.66,447.27 L 554.26 451.00 L 525.02 451.00 L 495.78 451.00 L 496.45 448.25 ZM 265.03 494.32 C258.81,492.05 250.81,483.83 248.66,477.51 C242.25,458.71 249.53,438.86 264.83,433.40 C271.09,431.16 282.71,431.65 288.50,434.38 C296.55,438.19 301.94,445.14 304.52,455.04 C306.52,462.71 306.08,469.09 302.99,477.33 C300.37,484.28 296.36,489.12 290.20,492.73 C284.42,496.11 272.06,496.90 265.03,494.32 ZM 809.75 494.57 C792.20,488.31 784.49,464.56 794.24,446.76 C798.01,439.86 803.88,434.68 809.78,433.05 C811.82,432.48 816.67,432.01 820.55,432.01 C837.65,431.99 849.40,445.23 849.41,464.50 C849.41,471.47 849.00,473.36 846.18,479.19 C842.46,486.90 836.97,492.14 830.21,494.45 C824.67,496.33 814.85,496.39 809.75,494.57 ZM 1008.50 405.60 C998.76,401.31 993.56,388.77 997.55,379.22 C1000.99,371.00 1007.54,366.65 1016.50,366.65 C1023.13,366.65 1026.99,368.24 1031.21,372.67 C1034.03,375.64 1037.00,382.69 1036.99,386.38 C1036.98,393.57 1030.81,402.92 1024.28,405.65 C1020.22,407.35 1012.42,407.33 1008.50,405.60 ZM 1012.00 393.88 C1012.00,389.56 1015.51,390.07 1019.73,395.00 C1022.94,398.75 1026.21,400.09 1027.41,398.15 C1027.69,397.69 1026.59,396.03 1024.96,394.47 C1021.37,391.02 1021.35,390.74 1024.50,387.59 C1027.67,384.42 1027.69,380.60 1024.55,377.45 C1022.37,375.28 1021.22,375.00 1014.55,375.00 L 1007.00 375.00 L 1007.00 386.42 C1007.00,394.64 1007.35,397.96 1008.25,398.28 C1010.27,399.01 1012.00,396.97 1012.00,393.88 ZM 1012.00 382.95 L 1012.00 378.89 L 1016.75 379.20 C1020.84,379.46 1021.55,379.82 1021.83,381.81 C1022.31,385.21 1020.26,387.00 1015.88,387.00 C1012.01,387.00 1012.00,386.99 1012.00,382.95 Z" fill="rgb(122,172,99)"/>
<path d="M 0.00 454.00 L 0.00 0.00 L 577.50 0.00 L 1155.00 0.00 L 1155.00 454.00 L 1155.00 908.00 L 577.50 908.00 L 0.00 908.00 L 0.00 454.00 ZM 549.50 622.62 C558.60,618.32 563.00,611.42 563.00,601.47 C563.00,598.39 563.52,594.89 564.16,593.68 C564.80,592.48 571.01,583.40 577.96,573.50 C589.23,557.43 608.21,530.07 612.06,524.36 C620.43,511.92 641.33,483.00 641.95,483.00 C642.81,483.00 645.27,486.55 657.53,505.50 C661.80,512.10 665.79,517.83 666.39,518.23 C668.13,519.39 696.79,519.15 697.51,517.98 C697.86,517.42 696.84,515.29 695.24,513.23 C693.65,511.18 688.96,504.55 684.82,498.50 C680.68,492.45 673.42,481.94 668.70,475.14 L 660.10 462.79 L 665.80 454.64 C679.03,435.71 714.37,385.69 721.36,376.00 C737.89,353.09 745.27,342.42 745.74,340.75 C746.01,339.79 746.54,339.00 746.92,339.00 C747.30,339.00 750.29,335.18 753.56,330.51 C757.80,324.44 760.38,321.72 762.57,320.99 C765.78,319.92 770.96,315.05 772.88,311.32 C774.70,307.76 774.26,297.42 772.10,293.21 C768.16,285.51 757.34,281.25 748.84,284.05 C739.72,287.04 735.00,294.09 735.00,304.68 C735.00,309.11 734.35,310.56 728.83,318.56 C711.49,343.68 704.52,353.71 695.49,366.50 C690.06,374.20 683.30,383.88 680.48,388.00 C677.66,392.12 671.03,401.58 665.76,409.00 C660.48,416.42 653.54,426.26 650.33,430.85 C647.13,435.44 643.60,440.31 642.49,441.67 L 640.49 444.14 L 631.85 428.82 C627.11,420.39 622.71,412.49 622.08,411.25 C620.96,409.05 620.53,409.00 604.46,409.00 C595.41,409.00 588.00,409.19 588.00,409.43 C588.00,409.66 591.97,415.63 596.82,422.68 C601.66,429.73 609.75,441.65 614.78,449.17 L 623.93 462.85 L 616.28 473.67 C612.07,479.63 605.67,488.63 602.06,493.68 C598.45,498.73 593.25,506.08 590.50,510.02 C580.02,525.03 552.50,563.79 547.15,571.08 C543.03,576.69 542.58,577.00 538.58,577.00 C528.57,577.00 518.48,584.02 516.08,592.65 C514.44,598.55 514.81,606.99 516.90,611.50 C522.32,623.22 537.37,628.35 549.50,622.62 ZM 504.17 602.35 C506.66,600.09 506.47,596.44 503.78,594.56 C500.93,592.56 499.11,592.59 496.83,594.65 C494.55,596.71 494.48,599.77 496.65,602.17 C498.71,604.45 501.77,604.52 504.17,602.35 ZM 613.93 599.54 C617.18,597.85 618.00,596.22 618.00,591.37 C618.00,583.99 608.80,580.22 602.63,585.07 C600.49,586.76 600.00,587.98 600.00,591.62 C600.00,599.56 606.62,603.32 613.93,599.54 ZM 697.50 572.18 C700.93,571.57 701.51,571.10 701.60,568.84 L 701.70 566.21 L 693.97 566.74 C689.72,567.03 684.67,566.97 682.75,566.61 C676.71,565.48 673.00,560.87 673.00,554.52 C673.00,549.49 675.30,545.56 679.36,543.63 C683.12,541.85 692.18,541.51 698.25,542.92 L 702.00 543.79 L 702.00 540.39 L 702.00 537.00 L 690.71 537.00 C680.99,537.00 678.80,537.31 674.97,539.25 C668.52,542.50 665.82,547.63 666.26,555.75 C666.57,561.48 666.93,562.34 670.54,566.04 C676.45,572.10 685.86,574.24 697.50,572.18 ZM 736.61 571.52 C745.02,569.03 749.00,563.26 749.00,553.58 C749.00,547.75 746.67,543.29 741.68,539.59 C737.48,536.48 722.87,536.00 717.39,538.80 C715.25,539.89 712.73,541.64 711.79,542.68 C705.30,549.86 706.42,562.51 714.06,568.20 C720.27,572.83 728.25,574.01 736.61,571.52 ZM 821.71 571.49 C827.79,569.69 833.56,563.89 834.55,558.56 C836.04,550.65 832.18,542.39 825.43,539.03 C819.53,536.09 808.00,536.20 802.02,539.25 C795.75,542.46 793.67,545.77 793.19,553.35 C792.70,561.10 794.40,564.91 800.01,568.63 C806.68,573.04 813.48,573.94 821.71,571.49 ZM 787.82 569.28 C788.12,567.11 787.87,567.06 776.32,566.78 L 764.50 566.50 L 764.22 551.75 L 763.95 537.00 L 760.56 537.00 L 757.17 537.00 L 757.05 554.53 L 756.92 572.05 L 772.21 571.78 C787.14,571.51 787.51,571.45 787.82,569.28 ZM 849.00 560.00 C849.00,553.40 849.38,548.00 849.84,548.00 C850.86,548.00 858.19,556.59 859.87,559.75 C860.74,561.38 861.97,562.00 864.34,562.00 C867.21,562.00 868.25,561.15 872.93,555.00 C875.86,551.15 878.64,548.00 879.13,548.00 C879.61,548.00 880.00,553.40 880.00,560.00 L 880.00 572.00 L 883.50 572.00 L 887.00 572.00 L 887.00 554.50 L 887.00 537.00 L 883.09 537.00 C879.36,537.00 878.84,537.42 872.00,546.00 C868.05,550.95 864.70,555.00 864.54,555.00 C864.38,555.00 861.16,550.97 857.38,546.04 C850.65,537.26 850.41,537.07 846.25,537.04 L 842.00 537.00 L 842.00 554.50 L 842.00 572.00 L 845.50 572.00 L 849.00 572.00 L 849.00 560.00 ZM 927.54 570.55 C934.83,567.50 934.61,558.05 927.17,554.33 C926.98,554.24 927.76,553.24 928.89,552.11 C933.60,547.40 932.13,540.41 925.99,538.31 C924.04,537.64 916.85,537.09 909.75,537.06 L 897.00 537.00 L 897.00 554.50 L 897.00 572.00 L 910.53 572.00 C920.10,572.00 925.08,571.57 927.54,570.55 ZM 946.99 570.02 C947.64,568.80 947.95,562.16 947.78,552.77 L 947.50 537.50 L 944.25 537.19 L 941.00 536.87 L 941.00 554.44 L 941.00 572.00 L 943.46 572.00 C944.90,572.00 946.37,571.17 946.99,570.02 ZM 962.62 568.00 L 964.22 564.00 L 975.12 564.00 L 986.02 564.00 L 987.62 568.00 C989.09,571.68 989.52,572.00 993.01,572.00 L 996.81 572.00 L 990.41 557.25 C980.99,535.55 982.51,537.50 975.00,537.50 L 968.57 537.50 L 961.70 553.00 C952.70,573.29 952.99,572.00 957.39,572.00 C960.69,572.00 961.16,571.64 962.62,568.00 ZM 510.02 563.49 C515.99,560.40 516.96,552.83 511.92,548.59 C508.45,545.66 505.20,545.33 501.07,547.46 C497.76,549.17 497.00,550.77 497.00,555.99 C497.00,559.04 497.63,560.35 500.08,562.41 C503.60,565.38 505.89,565.63 510.02,563.49 ZM 193.18 518.76 C200.82,515.95 208.25,511.44 212.41,507.09 L 215.28 504.10 L 207.01 496.30 C202.46,492.01 198.17,488.36 197.49,488.20 C196.80,488.03 194.54,489.05 192.47,490.45 C176.72,501.15 153.85,495.83 145.52,479.54 C142.77,474.18 142.50,472.77 142.52,464.07 C142.54,456.28 142.97,453.57 144.83,449.50 C147.55,443.51 151.90,438.77 158.00,435.16 C162.11,432.73 163.42,432.50 173.00,432.50 C183.71,432.50 186.22,433.14 193.31,437.70 L 196.12 439.50 L 200.20 435.00 C202.44,432.52 206.10,428.51 208.32,426.07 L 212.36 421.64 L 207.93 417.68 C205.49,415.50 200.28,412.17 196.35,410.29 C189.97,407.24 188.03,406.81 178.35,406.32 C158.26,405.31 143.41,410.00 131.56,421.10 C121.55,430.47 116.47,442.24 115.34,458.69 C113.56,484.59 124.04,505.18 144.19,515.36 C154.37,520.50 162.15,522.05 175.50,521.60 C184.04,521.31 187.99,520.67 193.18,518.76 ZM 544.74 519.43 C556.26,516.49 568.35,510.17 571.44,505.46 C573.01,503.06 572.91,502.89 565.25,494.95 L 557.46 486.87 L 551.71 490.33 C536.11,499.73 514.94,498.79 502.83,488.16 C499.19,484.96 494.43,475.73 495.52,473.97 C495.89,473.37 511.85,473.00 537.52,473.00 L 578.93 473.00 L 580.10 470.81 C580.91,469.30 581.09,465.31 580.67,458.06 C579.58,439.13 576.53,432.05 563.22,417.58 C559.62,413.66 547.84,408.34 539.92,407.06 C524.76,404.60 508.16,406.34 497.39,411.52 C479.03,420.35 468.29,437.47 467.27,459.50 C465.94,488.38 479.86,509.85 505.50,518.48 C516.35,522.13 532.60,522.52 544.74,519.43 ZM 290.43 519.48 C298.63,517.34 308.14,512.75 312.12,509.01 C321.40,500.30 322.97,498.49 325.07,494.17 C326.31,491.60 327.92,488.32 328.64,486.88 C330.98,482.23 332.97,471.71 332.99,463.91 C333.05,431.65 309.27,407.06 278.00,407.04 C258.99,407.03 246.99,411.35 235.72,422.27 C228.86,428.90 225.54,434.47 221.82,445.59 C219.90,451.31 219.51,454.48 219.59,464.00 C219.68,476.61 220.62,481.07 225.27,490.93 C232.08,505.35 248.59,517.57 265.00,520.31 C271.15,521.34 285.03,520.88 290.43,519.48 ZM 840.18 517.77 C864.12,508.93 878.08,487.05 876.73,460.50 C875.36,433.43 856.58,411.66 831.50,408.05 C819.67,406.34 811.15,406.76 802.03,409.49 C791.29,412.70 785.90,415.91 778.50,423.46 C762.02,440.28 758.15,467.95 769.12,490.51 C776.10,504.87 788.49,514.86 805.00,519.47 C813.49,521.83 831.52,520.96 840.18,517.77 ZM 370.17 517.87 C371.68,517.10 371.88,513.77 372.17,485.76 L 372.50 454.50 L 375.15 448.84 C380.28,437.91 389.59,431.94 401.36,432.04 C411.76,432.13 419.71,437.03 423.87,445.89 L 426.50 451.50 L 427.00 485.00 L 427.50 518.50 L 439.36 518.78 C447.25,518.97 451.68,518.68 452.61,517.91 C453.75,516.97 453.99,510.90 453.96,484.63 C453.93,466.96 453.51,450.70 453.02,448.50 C449.80,434.01 447.32,428.70 440.17,420.89 C430.64,410.48 416.93,406.09 400.40,408.14 C391.61,409.23 385.57,411.97 377.53,418.52 C373.98,421.41 371.82,422.59 371.59,421.78 C371.38,421.08 370.68,417.91 370.04,414.75 L 368.86 409.00 L 356.93 409.00 L 345.00 409.00 L 345.00 462.42 C345.00,491.80 345.28,516.57 345.62,517.46 C346.15,518.83 347.93,519.05 357.37,518.91 C363.49,518.81 369.25,518.35 370.17,517.87 ZM 750.00 464.02 L 750.00 409.00 L 737.14 409.00 L 724.29 409.00 L 723.65 415.75 C723.30,419.46 723.01,443.51 723.01,469.18 C723.00,509.12 723.21,516.07 724.48,517.34 C725.62,518.48 728.80,518.85 737.98,518.93 L 750.00 519.04 L 750.00 464.02 ZM 914.26 517.75 C915.72,516.65 915.94,512.89 916.21,485.48 L 916.50 454.45 L 919.80 447.76 C921.68,443.94 924.68,439.76 926.80,438.00 C934.59,431.54 949.24,430.20 958.08,435.13 C963.38,438.08 968.49,445.38 969.91,452.03 C970.56,455.06 971.00,469.56 971.00,488.08 L 971.00 519.06 L 984.25 518.78 L 997.50 518.50 L 997.50 483.00 C997.49,449.01 997.40,447.20 995.25,440.42 C994.02,436.52 991.26,430.62 989.12,427.31 C974.46,404.62 943.18,400.34 921.82,418.11 C919.25,420.25 916.70,422.00 916.15,422.00 C915.61,422.00 914.85,419.08 914.46,415.50 L 913.77 409.00 L 901.88 409.00 L 890.00 409.00 L 890.00 463.43 C890.00,514.42 890.11,517.88 891.75,518.31 C895.84,519.38 912.67,518.96 914.26,517.75 ZM 1026.85 408.91 C1036.37,404.16 1041.00,396.73 1041.00,386.23 C1041.00,379.32 1037.14,370.47 1033.37,368.76 C1032.07,368.17 1031.00,367.28 1031.00,366.79 C1031.00,364.86 1022.40,362.04 1016.50,362.03 C1005.05,362.01 995.55,368.85 992.51,379.30 C989.35,390.19 994.68,403.24 1004.31,408.16 C1013.62,412.92 1018.51,413.08 1026.85,408.91 ZM 745.75 397.85 C749.74,395.38 752.95,389.23 752.98,384.00 C753.02,375.74 745.88,369.05 737.00,369.02 C728.08,368.99 722.06,374.28 721.24,382.88 C720.84,387.02 721.21,388.68 723.33,392.31 C724.79,394.79 727.35,397.42 729.21,398.33 C733.98,400.69 741.51,400.47 745.75,397.85 ZM 841.51 379.25 C848.00,371.14 853.75,363.94 854.28,363.25 C855.04,362.26 851.82,362.01 838.87,362.03 L 822.50 362.06 L 814.25 377.13 C809.71,385.41 806.25,392.60 806.56,393.10 C806.87,393.59 812.20,394.00 818.42,394.00 L 829.71 394.00 L 841.51 379.25 ZM 778.20 367.95 C780.90,365.25 781.19,364.43 780.69,360.71 C779.97,355.34 777.17,353.00 771.48,353.00 C767.90,353.00 766.74,353.52 764.59,356.08 C761.73,359.47 761.39,362.27 763.40,365.89 C766.55,371.58 773.59,372.56 778.20,367.95 ZM 699.92 333.41 C702.40,331.32 703.00,330.06 703.00,326.87 C703.00,321.38 699.57,318.00 694.00,318.00 C688.48,318.00 685.00,321.38 685.00,326.76 C685.00,335.08 693.46,338.85 699.92,333.41 ZM 837.43 330.43 C839.29,328.56 839.48,324.88 837.80,323.20 C837.14,322.54 835.11,322.00 833.28,322.00 C830.72,322.00 829.70,322.57 828.84,324.46 C826.45,329.69 833.37,334.49 837.43,330.43 ZM 720.19 564.97 C716.80,562.91 714.00,557.84 714.00,553.78 C714.01,550.06 717.76,545.00 721.74,543.33 C726.45,541.37 734.21,542.03 737.82,544.70 C739.30,545.79 741.14,548.50 741.93,550.73 C744.92,559.19 738.52,567.00 728.60,567.00 C725.25,566.99 722.36,566.30 720.19,564.97 ZM 807.42 566.03 C804.51,564.85 800.02,559.28 799.89,556.67 C799.52,549.36 801.43,545.56 806.55,543.42 C811.08,541.52 817.15,541.63 821.45,543.68 C826.54,546.10 828.95,552.54 826.93,558.33 C825.02,563.83 820.25,567.02 814.10,566.94 C811.57,566.90 808.56,566.49 807.42,566.03 ZM 903.67 566.33 C903.30,565.97 903.00,563.72 903.00,561.33 L 903.00 557.00 L 913.38 557.00 C921.21,557.00 924.05,557.35 924.95,558.44 C926.78,560.64 925.80,564.30 923.00,565.71 C920.41,567.01 904.85,567.52 903.67,566.33 ZM 903.67 551.33 C903.30,550.97 903.00,548.94 903.00,546.83 L 903.00 543.00 L 912.80 543.00 C922.87,543.00 925.00,543.72 925.00,547.14 C925.00,550.48 921.07,552.00 912.44,552.00 C907.98,552.00 904.03,551.70 903.67,551.33 ZM 967.00 558.15 C967.00,557.69 968.27,554.20 969.82,550.40 C971.95,545.21 973.18,543.42 974.81,543.18 C976.58,542.92 977.43,543.90 979.57,548.68 C984.70,560.13 985.14,559.00 975.48,559.00 C970.81,559.00 967.00,558.62 967.00,558.15 ZM 496.45 448.25 C497.37,444.49 501.26,439.05 505.34,435.82 C513.47,429.37 532.30,428.01 542.50,433.13 C548.25,436.02 552.76,441.73 553.66,447.27 L 554.26 451.00 L 525.02 451.00 L 495.78 451.00 L 496.45 448.25 ZM 265.03 494.32 C258.81,492.05 250.81,483.83 248.66,477.51 C242.25,458.71 249.53,438.86 264.83,433.40 C271.09,431.16 282.71,431.65 288.50,434.38 C296.55,438.19 301.94,445.14 304.52,455.04 C306.52,462.71 306.08,469.09 302.99,477.33 C300.37,484.28 296.36,489.12 290.20,492.73 C284.42,496.11 272.06,496.90 265.03,494.32 ZM 809.75 494.57 C792.20,488.31 784.49,464.56 794.24,446.76 C798.01,439.86 803.88,434.68 809.78,433.05 C811.82,432.48 816.67,432.01 820.55,432.01 C837.65,431.99 849.40,445.23 849.41,464.50 C849.41,471.47 849.00,473.36 846.18,479.19 C842.46,486.90 836.97,492.14 830.21,494.45 C824.67,496.33 814.85,496.39 809.75,494.57 ZM 1008.50 405.60 C998.76,401.31 993.56,388.77 997.55,379.22 C1000.99,371.00 1007.54,366.65 1016.50,366.65 C1023.13,366.65 1026.99,368.24 1031.21,372.67 C1034.03,375.64 1037.00,382.69 1036.99,386.38 C1036.98,393.57 1030.81,402.92 1024.28,405.65 C1020.22,407.35 1012.42,407.33 1008.50,405.60 ZM 1012.00 393.88 C1012.00,389.56 1015.51,390.07 1019.73,395.00 C1022.94,398.75 1026.21,400.09 1027.41,398.15 C1027.69,397.69 1026.59,396.03 1024.96,394.47 C1021.37,391.02 1021.35,390.74 1024.50,387.59 C1027.67,384.42 1027.69,380.60 1024.55,377.45 C1022.37,375.28 1021.22,375.00 1014.55,375.00 L 1007.00 375.00 L 1007.00 386.42 C1007.00,394.64 1007.35,397.96 1008.25,398.28 C1010.27,399.01 1012.00,396.97 1012.00,393.88 ZM 1012.00 382.95 L 1012.00 378.89 L 1016.75 379.20 C1020.84,379.46 1021.55,379.82 1021.83,381.81 C1022.31,385.21 1020.26,387.00 1015.88,387.00 C1012.01,387.00 1012.00,386.99 1012.00,382.95 Z" fill="rgb(254,254,254)"/>
</g>
</svg>
