<?xml version="1.0" encoding="UTF-8"?>
<svg version="1.1" xmlns="http://www.w3.org/2000/svg" width="512" height="512">
<path d="M0 0 C168.96 0 337.92 0 512 0 C512 168.96 512 337.92 512 512 C343.04 512 174.08 512 0 512 C0 343.04 0 174.08 0 0 Z " fill="#FEFEFE" transform="translate(0,0)"/>
<path d="M0 0 C2.5625 1.5 2.5625 1.5 4 4 C4.54184149 6.78335416 4.56997926 9.21919209 4 12 C2.3125 14.1875 2.3125 14.1875 0 16 C-4.30116887 19.96974319 -7.51685558 24.33220507 -10.8125 29.125 C-11.88215912 30.66191328 -12.95247081 32.19837259 -14.0234375 33.734375 C-14.53745117 34.47365234 -15.05146484 35.21292969 -15.58105469 35.97460938 C-17.32901631 38.46963512 -19.12700911 40.92505913 -20.9375 43.375 C-25.18466556 49.17709019 -29.22996084 55.11603247 -33.25976562 61.0703125 C-37.93046772 67.96332031 -37.93046772 67.96332031 -40.4609375 71.26953125 C-41.11320312 72.12933594 -41.76546875 72.98914063 -42.4375 73.875 C-42.99308594 74.57367188 -43.54867187 75.27234375 -44.12109375 75.9921875 C-45.27651029 78.02771947 -45.27651029 78.02771947 -44.24487305 80.33959961 C-43.01289493 82.97244243 -41.6350292 85.20145258 -39.9609375 87.57421875 C-39.38085938 88.40630859 -38.80078125 89.23839844 -38.203125 90.09570312 C-37.59984375 90.95099609 -36.9965625 91.80628906 -36.375 92.6875 C-35.17025202 94.39676796 -33.96951018 96.10886899 -32.7734375 97.82421875 C-32.24153809 98.57791748 -31.70963867 99.33161621 -31.16162109 100.1081543 C-30 102 -30 102 -30 104 C-34.79838567 104.59896631 -39.22433633 104.86307175 -44 104 C-47.28490314 101.13049227 -48.96614518 97.80653157 -51 94 C-52.30180219 92.30859035 -53.62753244 90.63459119 -55 89 C-62.54833305 99.65058357 -70.03685642 110.34122554 -77.47851562 121.06665039 C-78.12369141 121.99598389 -78.76886719 122.92531738 -79.43359375 123.8828125 C-80.04444824 124.76565918 -80.65530273 125.64850586 -81.28466797 126.55810547 C-82.78942924 128.70023787 -84.34123277 130.79554158 -85.91015625 132.890625 C-87.82749993 135.74334569 -88.61232394 137.29340887 -89 140.625 C-89.78693547 145.05907872 -91.43031556 147.14425245 -95 150 C-98.14911479 151.57455739 -100.52008816 151.34799118 -104 151 C-107.58355703 148.94277282 -109.42464702 147.77748714 -110.69921875 143.83984375 C-111.28993092 140.03514921 -111.27224577 137.63977756 -109.75 134.0625 C-108 132 -108 132 -105 130 C-102.66800612 129.92094936 -100.33167378 129.91201231 -98 130 C-97.77054688 129.31421875 -97.54109375 128.6284375 -97.3046875 127.921875 C-95.69903677 124.32598653 -93.49139038 121.36689071 -91.125 118.25 C-90.12886389 116.91506468 -89.13412394 115.57908665 -88.140625 114.2421875 C-87.62435547 113.54834961 -87.10808594 112.85451172 -86.57617188 112.13964844 C-82.92859394 107.1880727 -79.41131301 102.14370725 -75.890625 97.1015625 C-74.02732026 94.43666156 -72.12439511 91.81110278 -70.171875 89.2109375 C-69.7402002 88.62393066 -69.30852539 88.03692383 -68.86376953 87.43212891 C-67.70438074 85.85779135 -66.52854854 84.29560047 -65.3515625 82.734375 C-63.72395153 80.1354028 -63.72395153 80.1354028 -64.4609375 77.609375 C-66.50710951 74.14023057 -68.70616598 70.8096748 -71 67.5 C-76.41237113 59.69072165 -76.41237113 59.69072165 -78 55 C-73.11926132 54.1979685 -68.84236297 53.86458513 -64 55 C-60.37493447 58.77654521 -56 64.53056821 -56 70 C-55.34 70 -54.68 70 -54 70 C-53.76796875 69.484375 -53.5359375 68.96875 -53.296875 68.4375 C-51.53096623 65.11844256 -49.39357206 62.08143239 -47.25 59 C-46.76901855 58.30430908 -46.28803711 57.60861816 -45.79248047 56.8918457 C-42.506103 52.14630828 -39.19532231 47.41791464 -35.88061523 42.69213867 C-34.11402561 40.17184345 -32.35182158 37.64852089 -30.58984375 35.125 C-28.16415575 31.65232416 -25.7154576 28.19732785 -23.25390625 24.75 C-22.06468736 23.0627937 -20.87587041 21.37530402 -19.6875 19.6875 C-18.8514624 18.53254028 -18.8514624 18.53254028 -17.99853516 17.35424805 C-14.84717676 12.84372357 -13.43025141 9.61442825 -13 4 C-9.91858449 -1.00730021 -5.36299035 -0.94467353 0 0 Z " fill="#03416D" transform="translate(337,162)"/>
<path d="M0 0 C6.42538439 3.80223777 10.30885129 8.95516786 12.515625 16.14453125 C14.13120353 24.57218833 12.18418873 31.65394057 7.796875 38.9453125 C4.03938297 44.00200517 -1.31030754 46.18937335 -7.10546875 48.12109375 C-14.73974152 48.89595338 -21.47046358 48.14504919 -28.10546875 44.12109375 C-34.16081982 38.96663295 -37.48592975 33.14701688 -38.453125 25.30078125 C-38.86598764 17.02235596 -37.02817368 10.52831331 -31.4609375 4.2734375 C-22.51511053 -3.94541482 -10.82701746 -5.63785233 0 0 Z " fill="#04426E" transform="translate(374.10546875,218.87890625)"/>
<path d="M0 0 C5.09741808 3.12796109 8.13200953 7.36553079 10 13 C11.21003349 22.39954016 10.87113724 31.13050734 5 39 C0.5459114 44.16925212 -5.19781441 46.52210098 -11.828125 47.35546875 C-20.12691817 47.74912945 -26.53080191 45.89283216 -32.84765625 40.390625 C-38.02705115 34.84218231 -40.12532608 29.03182982 -40.375 21.5 C-40.09303303 13.32295783 -37.62925169 7.73154459 -32.00390625 1.765625 C-22.76404531 -6.37553903 -10.26798595 -6.07610715 0 0 Z " fill="#03416D" transform="translate(135,220)"/>
<path d="M0 0 C1.13272339 0.01244751 1.13272339 0.01244751 2.28833008 0.02514648 C8.97752596 0.22868347 13.44259731 1.40595613 18.35546875 6.0859375 C25.44687534 13.80057935 24.625 19.10900396 24.625 30.4375 C12.415 30.4375 0.205 30.4375 -12.375 30.4375 C-10.0406203 36.25062382 -10.0406203 36.25062382 -6.8125 38.3125 C-0.97396785 40.22329234 4.3753862 40.47898787 10 37.875 C10.86625 37.400625 11.7325 36.92625 12.625 36.4375 C15.99088782 36.4375 16.85365105 37.6505612 19.375 40 C20.48875 41.2065625 20.48875 41.2065625 21.625 42.4375 C20.62725828 44.99622472 19.98161889 46.22063716 17.6015625 47.66796875 C16.82554687 47.98378906 16.04953125 48.29960937 15.25 48.625 C14.09371094 49.11033203 14.09371094 49.11033203 12.9140625 49.60546875 C5.86659184 52.16709204 -2.07361902 52.83457927 -9.2734375 50.49609375 C-16.48330632 47.04271814 -21.19994273 42.89888459 -24.375 35.4375 C-26.62527607 28.13202628 -26.49489908 19.86411149 -23.25 12.9375 C-18.08322996 3.95750813 -10.20854532 -0.14333723 0 0 Z " fill="#04426D" transform="translate(230.375,215.5625)"/>
<path d="M0 0 C5.33321184 3.21483029 9.06736096 8.31300192 10.95703125 14.1796875 C11.12199927 16.85979699 11.1908192 19.4296233 11.15234375 22.10546875 C11.14951385 22.85305954 11.14668396 23.60065033 11.14376831 24.37089539 C11.13262594 26.7448263 11.10753287 29.11837175 11.08203125 31.4921875 C11.07199374 33.1074164 11.06286924 34.72265126 11.0546875 36.33789062 C11.03270614 40.28530344 10.99821782 44.23243024 10.95703125 48.1796875 C6.99703125 48.1796875 3.03703125 48.1796875 -1.04296875 48.1796875 C-1.05755127 47.26678955 -1.07213379 46.3538916 -1.0871582 45.41333008 C-1.1483767 42.01170139 -1.22255748 38.61086069 -1.30541992 35.2097168 C-1.33858134 33.74042328 -1.36664053 32.27100506 -1.3894043 30.80151367 C-1.42311394 28.68354382 -1.47543308 26.56670755 -1.53125 24.44921875 C-1.55743408 23.17667236 -1.58361816 21.90412598 -1.6105957 20.59301758 C-2.06717707 16.98857713 -2.89699086 15.0743164 -5.04296875 12.1796875 C-8.46473564 9.61336233 -11.88937296 9.81533699 -16.04296875 10.1796875 C-20.7491043 12.10492477 -22.11387418 14.58222084 -24.04296875 19.1796875 C-24.53959825 22.55418176 -24.53959825 22.55418176 -24.5546875 26.109375 C-24.59013672 27.3984375 -24.62558594 28.6875 -24.66210938 30.015625 C-24.68520368 31.36197392 -24.7079863 32.70832822 -24.73046875 34.0546875 C-24.76367758 35.42451121 -24.7981705 36.79430442 -24.83398438 38.1640625 C-24.91627034 41.5025216 -24.98548803 44.84072435 -25.04296875 48.1796875 C-29.00296875 48.1796875 -32.96296875 48.1796875 -37.04296875 48.1796875 C-37.04296875 32.0096875 -37.04296875 15.8396875 -37.04296875 -0.8203125 C-33.41296875 -0.8203125 -29.78296875 -0.8203125 -26.04296875 -0.8203125 C-26.04296875 1.1596875 -26.04296875 3.1396875 -26.04296875 5.1796875 C-25.42808594 4.75816406 -24.81320312 4.33664063 -24.1796875 3.90234375 C-23.37144531 3.35449219 -22.56320312 2.80664062 -21.73046875 2.2421875 C-20.92996094 1.69691406 -20.12945312 1.15164062 -19.3046875 0.58984375 C-13.32063551 -3.14114549 -6.32488691 -2.61977564 0 0 Z " fill="#02406C" transform="translate(429.04296875,217.8203125)"/>
<path d="M0 0 C5.86715453 3.52497707 9.17393742 8.69931625 10.95703125 15.17578125 C11.1186614 17.81713071 11.1917271 20.34462781 11.15234375 22.98046875 C11.14951385 23.70444855 11.14668396 24.42842834 11.14376831 25.17434692 C11.13265212 27.46666615 11.10756437 29.75858188 11.08203125 32.05078125 C11.07199035 33.61327557 11.06286644 35.17577607 11.0546875 36.73828125 C11.03274098 40.55093463 10.99827138 44.36328973 10.95703125 48.17578125 C6.99703125 48.17578125 3.03703125 48.17578125 -1.04296875 48.17578125 C-1.07269775 46.80643433 -1.07269775 46.80643433 -1.10302734 45.40942383 C-1.18133139 42.00795653 -1.268031 38.60691521 -1.36035156 35.20581055 C-1.39852827 33.73649263 -1.43340057 32.26708486 -1.46484375 30.79760742 C-1.51074164 28.67985011 -1.56869247 26.56270535 -1.62890625 24.4453125 C-1.66032715 23.17276611 -1.69174805 21.90021973 -1.72412109 20.58911133 C-2.02894503 17.3259081 -2.49410879 15.05143411 -4.04296875 12.17578125 C-8.03680605 10.26963163 -11.65542077 9.62733775 -16.04296875 10.17578125 C-20.01166651 12.31277235 -22.46532842 13.93807155 -24.04296875 18.17578125 C-24.40991496 21.46798677 -24.40991496 21.46798677 -24.45703125 25.12890625 C-24.4763974 25.78912781 -24.49576355 26.44934937 -24.51571655 27.12957764 C-24.57526224 29.22818278 -24.62179597 31.32684353 -24.66796875 33.42578125 C-24.70617169 34.85288785 -24.74522477 36.27997197 -24.78515625 37.70703125 C-24.88094205 41.19640816 -24.96506517 44.68595411 -25.04296875 48.17578125 C-29.00296875 48.17578125 -32.96296875 48.17578125 -37.04296875 48.17578125 C-37.04296875 32.00578125 -37.04296875 15.83578125 -37.04296875 -0.82421875 C-33.41296875 -0.82421875 -29.78296875 -0.82421875 -26.04296875 -0.82421875 C-26.04296875 1.15578125 -26.04296875 3.13578125 -26.04296875 5.17578125 C-25.42808594 4.75425781 -24.81320313 4.33273438 -24.1796875 3.8984375 C-23.37144531 3.35058594 -22.56320313 2.80273438 -21.73046875 2.23828125 C-20.92996094 1.69300781 -20.12945312 1.14773437 -19.3046875 0.5859375 C-13.32427444 -3.1427829 -6.31940463 -2.62996919 0 0 Z " fill="#023F6C" transform="translate(188.04296875,217.82421875)"/>
<path d="M0 0 C3.1875 2.25 3.1875 2.25 5.1875 6.25 C2.8775 8.56 0.5675 10.87 -1.8125 13.25 C-3.3284375 12.5075 -3.3284375 12.5075 -4.875 11.75 C-9.87973594 9.63105938 -13.91971589 9.55840581 -19.0625 11.4375 C-22.2811267 13.5588676 -23.43148801 14.64402425 -24.8125 18.25 C-25.38847169 23.71715986 -25.41164225 29.29925286 -22.8125 34.25 C-19.0973168 36.17005928 -15.96058826 36.52116372 -11.8125 36.5 C-10.801875 36.50515625 -9.79125 36.5103125 -8.75 36.515625 C-5.7421024 36.24363426 -3.53943207 35.51321118 -0.8125 34.25 C1.4975 36.56 3.8075 38.87 6.1875 41.25 C1.85754595 45.96200882 -1.87080687 48.85777425 -8.328125 49.71875 C-17.45433573 49.79511996 -24.35511972 48.94096853 -31.42578125 42.86328125 C-37.93378603 35.85613746 -38.37326296 27.92190826 -38.15625 18.81640625 C-37.52351844 12.25181635 -35.28090423 8.37383456 -30.5 3.9375 C-21.91117165 -2.67067611 -10.18572871 -4.71976074 0 0 Z " fill="#04416D" transform="translate(86.8125,217.75)"/>
<path d="M0 0 C4.29 0 8.58 0 13 0 C13 16.17 13 32.34 13 49 C8.71 49 4.42 49 0 49 C0 32.83 0 16.66 0 0 Z " fill="#00416D" transform="translate(318,217)"/>
<path d="M0 0 C3.51223473 2.34148982 5.00016463 4.04121364 6.8125 7.875 C7.67271938 13.81921259 7.27040724 18.81163582 3.8125 23.875 C0.8311984 27.20029794 -2.65611631 27.60913421 -6.94140625 27.92578125 C-10.49757431 27.84538093 -12.368354 27.03853065 -15.1875 24.875 C-18.93894505 19.77957931 -19.97625587 15.08645249 -19.1875 8.875 C-17.8091851 5.18966605 -15.91704221 2.48623807 -12.875 -0.0625 C-8.25435751 -1.88926564 -4.64734979 -1.6402411 0 0 Z " fill="#FAFBFC" transform="translate(126.1875,228.125)"/>
<path d="M0 0 C4.36339712 2.22286269 7.23431511 4.38960056 9 9 C9.65862967 14.31782472 9.65060637 18.59869397 7.375 23.5 C3.92932362 27.12702777 0.94963934 28.7156776 -4 29.4375 C-8.70111423 28.75192084 -11.7140168 26.46336019 -14.8125 22.9375 C-17.31421627 18.8557524 -17.61577307 14.66106002 -17 10 C-15.66413911 6.33364266 -13.7257032 3.62491109 -10.75 1.0625 C-7.09609028 -0.34923785 -3.82830209 -0.67558272 0 0 Z " fill="#FAFBFC" transform="translate(365,227)"/>
<path d="M0 0 C3.27634314 2.67456583 4.63024101 4.12149228 5.4375 8.22265625 C5.65604767 12.31359542 5.3293799 14.47299216 3.125 18 C-0.4077121 21.3249055 -3.04920088 21.33797121 -7.7421875 21.28515625 C-11.11376856 20.85933373 -12.74020743 19.46522826 -15 17 C-17.28582634 13.73453379 -17.40058025 10.92568648 -17 7 C-13.61410046 -0.66282529 -7.68044895 -2.45829921 0 0 Z " fill="#EEF2F5" transform="translate(454,197)"/>
<path d="M0 0 C0.76183594 -0.00515625 1.52367187 -0.0103125 2.30859375 -0.015625 C4.82486082 0.28091947 6.41266572 0.92419214 8.5625 2.25 C10.65633612 4.94207502 11.49668961 6.80813021 12 10.1875 C11.35441855 14.70657016 9.3984142 17.8572375 5.75 20.625 C2.45274117 21.56707395 -0.0187599 21.66260656 -3.4375 21.25 C-7.02105703 19.19277282 -8.86214702 18.02748714 -10.13671875 14.08984375 C-10.72743092 10.28514921 -10.70974577 7.88977756 -9.1875 4.3125 C-6.35111266 0.96961492 -4.2684127 -0.02879199 0 0 Z " fill="#79B72C" transform="translate(236.4375,291.75)"/>
<path d="M0 0 C2.625 1.5625 2.625 1.5625 4 4 C4.5 7.5 4.5 7.5 4 11 C2.13291495 13.36497439 0.67938569 14.66030715 -2 16 C-5.98558966 16.37599902 -8.32579625 16.36641508 -11.875 14.4375 C-14.69428622 11.20361287 -15.14998605 9.27460254 -15 5 C-11.35362751 -0.90963818 -6.36640607 -1.1380085 0 0 Z " fill="#1A4C76" transform="translate(326,274)"/>
<path d="M0 0 C2.57421875 0.4140625 2.57421875 0.4140625 5.26171875 1.9765625 C7.13782394 5.46075785 7.25815153 7.51564565 6.57421875 11.4140625 C3.34466758 15.11623092 1.85781214 16.21138986 -2.98828125 16.9765625 C-7.07297532 16.30815802 -8.70666188 15.53305236 -11.42578125 12.4140625 C-12.66835781 8.39396188 -12.82827834 6.35993067 -11.17578125 2.4765625 C-7.4324895 -0.33090631 -4.58700747 -0.23271867 0 0 Z " fill="#09406C" transform="translate(361.42578125,273.5859375)"/>
<path d="M0 0 C10.7421875 -0.1953125 10.7421875 -0.1953125 14 0 C14.66 0.66 15.32 1.32 16 2 C15.71325582 4.00720923 15.38133299 6.0085944 15 8 C15.33 8.33 15.66 8.66 16 9 C16.25 11.4375 16.25 11.4375 16 14 C11.0754853 17.2830098 5.82305673 16.11530805 0 16 C0 10.72 0 5.44 0 0 Z " fill="#22557C" transform="translate(395,274)"/>
<path d="M0 0 C2.5625 1.5 2.5625 1.5 4 4 C4.78383251 8.02642386 4.67145236 10.95253431 2.4375 14.4375 C-0.80899889 16.51858903 -3.15247539 16.93249957 -7 17 C-9.9375 15.6875 -9.9375 15.6875 -12 14 C-12 13.34 -12 12.68 -12 12 C-12.66 11.67 -13.32 11.34 -14 11 C-13.72139186 7.3780942 -13.42061885 4.68350563 -11.5 1.5625 C-7.74071744 -0.7870516 -4.31138877 -0.75943729 0 0 Z " fill="#77B62A" transform="translate(337,162)"/>
<path d="M0 0 C4.29 0 8.58 0 13 0 C13 16.17 13 32.34 13 49 C8.71 49 4.42 49 0 49 C0 32.83 0 16.66 0 0 Z M2 1 C2 16.18 2 31.36 2 47 C4.97 47 7.94 47 11 47 C11 31.82 11 16.64 11 1 C8.03 1 5.06 1 2 1 Z " fill="#2F5E83" transform="translate(318,217)"/>
<path d="M0 0 C3.4787694 1.94008293 4.67765791 3.20536226 6.25 6.8125 C6.25 7.4725 6.25 8.1325 6.25 8.8125 C-2.33 8.8125 -10.91 8.8125 -19.75 8.8125 C-18.56248076 4.06242305 -16.89636724 2.29275327 -12.9375 -0.4375 C-8.35068312 -2.01012293 -4.552115 -1.44150308 0 0 Z " fill="#EEF2F5" transform="translate(237.75,227.1875)"/>
<path d="M0 0 C4.95 0 9.9 0 15 0 C13.02 2.97 13.02 2.97 11 6 C10.5771875 6.77085937 10.154375 7.54171875 9.71875 8.3359375 C8.31566127 10.68341288 7.15843085 12.29864862 5 14 C0.77782779 14.70189564 -2.68120346 14.38389303 -7 14 C-4.69 9.38 -2.38 4.76 0 0 Z " fill="#06426E" transform="translate(362,196)"/>
<path d="M0 0 C3.4375 1 3.4375 1 5.375 2.75 C6.67120853 5.49491218 6.96237013 7.00074212 6.4375 10 C4.875 12.3125 4.875 12.3125 2.4375 14 C-1.02480815 14.42519574 -3.3972167 14.63902633 -6.5 12.9375 C-8.20152633 9.8347167 -7.98769574 7.46230815 -7.5625 4 C-5.30132583 0.38212133 -4.292718 0 0 0 Z " fill="#07426E" transform="translate(325.5625,199)"/>
<path d="M0 0 C5.45949074 1.09189815 6.01471081 1.68791562 9 6 C11.59283329 4.92710346 12.85703487 4.20253394 14.5 1.875 C14.995 1.25625 15.49 0.6375 16 0 C17.32 0 18.64 0 20 0 C20 5.28 20 10.56 20 16 C19.01 16 18.02 16 17 16 C16.505 11.05 16.505 11.05 16 6 C15.4225 6.825 14.845 7.65 14.25 8.5 C13.13625 9.7375 13.13625 9.7375 12 11 C10.68 11 9.36 11 8 11 C5 7.78571429 5 7.78571429 5 5 C4.34 5 3.68 5 3 5 C3 8.3 3 11.6 3 15 C2.01 15 1.02 15 0 15 C0 10.05 0 5.1 0 0 Z " fill="#124771" transform="translate(371,274)"/>
<path d="M0 0 C1.98 0 3.96 0 6 0 C6.82011312 1.55851755 7.63076213 3.12201716 8.4375 4.6875 C8.88996094 5.55761719 9.34242188 6.42773438 9.80859375 7.32421875 C10.95991928 9.90998264 11.56320753 12.21356528 12 15 C11.01 15 10.02 15 9 15 C8.67 14.34 8.34 13.68 8 13 C5.64400765 12.53248212 5.64400765 12.53248212 2.9375 12.375 C2.01839844 12.30023438 1.09929687 12.22546875 0.15234375 12.1484375 C-0.55792969 12.09945313 -1.26820313 12.05046875 -2 12 C-2.33 13.32 -2.66 14.64 -3 16 C-3.99 16 -4.98 16 -6 16 C-5.37183502 12.05050296 -4.1354471 8.80107972 -2.4375 5.1875 C-1.98246094 4.21167969 -1.52742188 3.23585938 -1.05859375 2.23046875 C-0.70925781 1.49441406 -0.35992187 0.75835937 0 0 Z " fill="#114771" transform="translate(427,274)"/>
<path d="M0 0 C3.27634314 2.67456583 4.63024101 4.12149228 5.4375 8.22265625 C5.65604767 12.31359542 5.3293799 14.47299216 3.125 18 C-0.4077121 21.3249055 -3.04920088 21.33797121 -7.7421875 21.28515625 C-11.11376856 20.85933373 -12.74020743 19.46522826 -15 17 C-17.28582634 13.73453379 -17.40058025 10.92568648 -17 7 C-13.61410046 -0.66282529 -7.68044895 -2.45829921 0 0 Z M-14.375 5.75 C-15.32835544 9.18207959 -14.91654656 11.57822616 -14 15 C-11.25668103 18.14674823 -9.62507614 18.89954133 -5.5 19.5625 C-1.9035882 19.23852464 -1.9035882 19.23852464 0.9375 17 C3.21919434 13.68117187 3.80916383 11.88936773 3.5546875 7.9375 C2.4812192 4.18792059 0.28696911 2.98458512 -3 1 C-7.76367223 0.07050298 -11.40918242 1.97532308 -14.375 5.75 Z " fill="#1B4A74" transform="translate(454,197)"/>
<path d="M0 0 C3.4375 0.75 3.4375 0.75 5.4375 2.75 C5.79321424 5.52457104 5.80155327 7.12896796 4.375 9.5625 C1.34374457 11.42036623 -1.09672859 11.12133265 -4.5625 10.75 C-6.5625 9.625 -6.5625 9.625 -7.5625 7.75 C-7.4375 4.6875 -7.4375 4.6875 -6.5625 1.75 C-3.5625 -0.25 -3.5625 -0.25 0 0 Z " fill="#F1F5F7" transform="translate(359.5625,276.25)"/>
<path d="M0 0 C3.4375 0.75 3.4375 0.75 5.4375 2.75 C5.79773622 5.55984248 5.82082602 7.13241919 4.3125 9.5625 C1.59273346 11.28501881 -0.40836249 11.07855599 -3.5625 10.75 C-4.5525 10.09 -5.5425 9.43 -6.5625 8.75 C-6.9375 5.25 -6.9375 5.25 -6.5625 1.75 C-3.5625 -0.25 -3.5625 -0.25 0 0 Z " fill="#F7F9FA" transform="translate(321.5625,276.25)"/>
<path d="M0 0 C3.96 0 7.92 0 12 0 C12 0.66 12 1.32 12 2 C9.03 2 6.06 2 3 2 C3 3.65 3 5.3 3 7 C5.64 7 8.28 7 11 7 C11 7.33 11 7.66 11 8 C8.36 8 5.72 8 3 8 C3 9.65 3 11.3 3 13 C3.62648438 12.97679687 4.25296875 12.95359375 4.8984375 12.9296875 C5.71570313 12.91164063 6.53296875 12.89359375 7.375 12.875 C8.18710937 12.85179687 8.99921875 12.82859375 9.8359375 12.8046875 C12 13 12 13 14 15 C13 16 13 16 10.05859375 16.09765625 C6.70572917 16.06510417 3.35286458 16.03255208 0 16 C0 10.72 0 5.44 0 0 Z " fill="#164771" transform="translate(395,274)"/>
<path d="M0 0 C1.07765625 0.03609375 2.1553125 0.0721875 3.265625 0.109375 C4.49539063 0.17898438 4.49539063 0.17898438 5.75 0.25 C5.42 1.24 5.09 2.23 4.75 3.25 C4.12351562 3.22679687 3.49703125 3.20359375 2.8515625 3.1796875 C2.03429687 3.16164063 1.21703125 3.14359375 0.375 3.125 C-0.84316406 3.09019531 -0.84316406 3.09019531 -2.0859375 3.0546875 C-4.46342243 3.03629949 -4.46342243 3.03629949 -6.25 5.25 C-6.58333333 7.75 -6.58333333 7.75 -6.25 10.25 C-3.75494038 12.74505962 -2.57671112 12.60948376 0.875 12.875 C1.78507812 12.94976562 2.69515625 13.02453125 3.6328125 13.1015625 C4.33148438 13.15054687 5.03015625 13.19953125 5.75 13.25 C5.42 14.24 5.09 15.23 4.75 16.25 C-4.86181435 16.81540084 -4.86181435 16.81540084 -9.25 13.25 C-10.79586876 10.15826248 -10.54359521 7.65570448 -10.25 4.25 C-7.2197487 0.13699704 -4.97865702 -0.21646335 0 0 Z " fill="#053A68" transform="translate(303.25,273.75)"/>
<path d="M0 0 C1.32 0 2.64 0 4 0 C4 4.29 4 8.58 4 13 C7.3 13 10.6 13 14 13 C14 13.99 14 14.98 14 16 C11.85423363 16.02685938 9.70837355 16.04633088 7.5625 16.0625 C6.36753906 16.07410156 5.17257812 16.08570313 3.94140625 16.09765625 C1 16 1 16 0 15 C-0.07313567 12.46950598 -0.09247527 9.96695163 -0.0625 7.4375 C-0.05798828 6.72658203 -0.05347656 6.01566406 -0.04882812 5.28320312 C-0.03700864 3.52209987 -0.01907263 1.76103964 0 0 Z " fill="#315E83" transform="translate(333,274)"/>
<path d="M0 0 C0 3.96 0 7.92 0 12 C0.66 12 1.32 12 2 12 C2 10.68 2 9.36 2 8 C2.99 8 3.98 8 5 8 C5.99 9.485 5.99 9.485 7 11 C7.99 11.33 8.98 11.66 10 12 C10 12.66 10 13.32 10 14 C6.89951072 15.55024464 4.42105782 15.28992015 1 15 C-2.82628053 12.92049971 -3.79139239 11.687178 -5.0625 7.5 C-5 4 -5 4 -3.125 1.5625 C-1 0 -1 0 0 0 Z " fill="#F2F5F8" transform="translate(444,201)"/>
<path d="M0 0 C6.15234375 -0.09765625 6.15234375 -0.09765625 8 0 C9 1 9 1 9.0625 3.5625 C9.041875 4.366875 9.02125 5.17125 9 6 C8.34 6 7.68 6 7 6 C7.66 7.32 8.32 8.64 9 10 C7.68 9.67 6.36 9.34 5 9 C5 8.34 5 7.68 5 7 C4.01 7 3.02 7 2 7 C2 8.32 2 9.64 2 11 C1.34 11 0.68 11 0 11 C0 7.37 0 3.74 0 0 Z " fill="#6B8BA6" transform="translate(444,202)"/>
<path d="M0 0 C1.98 0 3.96 0 6 0 C6.82011312 1.55851755 7.63076213 3.12201716 8.4375 4.6875 C8.88996094 5.55761719 9.34242188 6.42773438 9.80859375 7.32421875 C10.95991928 9.90998264 11.56320753 12.21356528 12 15 C11.01 15 10.02 15 9 15 C8.67 14.34 8.34 13.68 8 13 C5.87423218 12.53348793 5.87423218 12.53348793 3.4375 12.375 C2.61121094 12.30023438 1.78492188 12.22546875 0.93359375 12.1484375 C0.29550781 12.09945313 -0.34257812 12.05046875 -1 12 C-0.67 11.34 -0.34 10.68 0 10 C2.31 10 4.62 10 7 10 C6.505 9.05125 6.01 8.1025 5.5 7.125 C4 4 4 4 4 2 C3.34 2 2.68 2 2 2 C2 2.66 2 3.32 2 4 C1.34 4 0.68 4 0 4 C0 2.68 0 1.36 0 0 Z " fill="#083F6B" transform="translate(427,274)"/>
<path d="M0 0 C1.32 0 2.64 0 4 0 C4 5.28 4 10.56 4 16 C3.01 16 2.02 16 1 16 C0.67 12.7 0.34 9.4 0 6 C-1.32 6.99 -2.64 7.98 -4 9 C-4 5 -4 5 -2.25 2.25 C-1.5075 1.5075 -0.765 0.765 0 0 Z " fill="#09406C" transform="translate(387,274)"/>
<path d="M0 0 C0.33 0 0.66 0 1 0 C1.32470459 4.13998349 1.4304413 6.33999001 -0.875 9.875 C-3.73785628 12.73785628 -5.36716762 13.1865146 -9.3125 13.3125 C-12.79215473 13.27888015 -13.90980411 13.05449335 -17 11.1875 C-19 9 -19 9 -20 6 C-19.34 5.34 -18.68 4.68 -18 4 C-17.319375 5.2065625 -17.319375 5.2065625 -16.625 6.4375 C-15.25274335 9.08856572 -15.25274335 9.08856572 -13 10 C-8.03226502 10.48858724 -8.03226502 10.48858724 -3.6875 8.375 C-1.77033689 5.67677044 -0.8675791 3.18112337 0 0 Z " fill="#164771" transform="translate(458,205)"/>
<path d="M0 0 C8.96523405 -0.61593211 8.96523405 -0.61593211 12.625 1.5625 C14.46392977 4.82242096 14.28299062 7.32112194 14 11 C12.68 10.67 11.36 10.34 10 10 C10.061875 9.21625 10.12375 8.4325 10.1875 7.625 C10.125625 6.75875 10.06375 5.8925 10 5 C6.75073878 2.83382585 6.4014758 2.78664331 2.8125 3.375 C1.554375 3.58125 0.29625 3.7875 -1 4 C-0.67 2.68 -0.34 1.36 0 0 Z " fill="#073D6A" transform="translate(316,274)"/>
<path d="M0 0 C0.66 0 1.32 0 2 0 C2.375 3.1875 2.375 3.1875 2 7 C-1.39769025 10.89491321 -2.69140585 11.89446821 -7.875 12.3125 C-8.90625 12.209375 -9.9375 12.10625 -11 12 C-11 11.01 -11 10.02 -11 9 C-9.329375 8.814375 -9.329375 8.814375 -7.625 8.625 C-3.96896323 8.3534187 -3.96896323 8.3534187 -2 6 C-1.28591666 4.01643517 -0.61382258 2.01684563 0 0 Z " fill="#0D446F" transform="translate(366,278)"/>
<path d="M0 0 C4.55555556 0.55555556 4.55555556 0.55555556 6 2 C6.125 4.5 6.125 4.5 6 7 C5 8 5 8 1.9375 8.0625 C0.968125 8.041875 -0.00125 8.02125 -1 8 C-1.625 5.125 -1.625 5.125 -2 2 C-1.34 1.34 -0.68 0.68 0 0 Z " fill="#7BB82F" transform="translate(338,192)"/>
<path d="M0 0 C2.625 0.375 2.625 0.375 5 1 C5.625 3.375 5.625 3.375 6 6 C4 8 4 8 1.4375 8.1875 C-1 8 -1 8 -2 7 C-2.1875 4.5625 -2.1875 4.5625 -2 2 C-1.34 1.34 -0.68 0.68 0 0 Z " fill="#79B72C" transform="translate(266,294)"/>
<path d="M0 0 C2.5625 0.1875 2.5625 0.1875 4.5625 2.1875 C4.1875 4.8125 4.1875 4.8125 3.5625 7.1875 C1.1875 7.8125 1.1875 7.8125 -1.4375 8.1875 C-3.4375 6.1875 -3.4375 6.1875 -3.625 3.625 C-3.37291261 0.34786389 -3.27713611 0.25208739 0 0 Z " fill="#7CB830" transform="translate(305.4375,176.8125)"/>
<path d="M0 0 C4.70588235 0.70588235 4.70588235 0.70588235 6 2 C6.04063832 3.66617115 6.042721 5.33388095 6 7 C3.125 7.625 3.125 7.625 0 8 C-0.66 7.34 -1.32 6.68 -2 6 C-1.44444444 1.44444444 -1.44444444 1.44444444 0 0 Z " fill="#79B72C" transform="translate(220,278)"/>
<path d="M0 0 C4.875 1.875 4.875 1.875 6 3 C7.68183948 3.23287008 9.3712416 3.41264166 11.0625 3.5625 C12.44115234 3.68818359 12.44115234 3.68818359 13.84765625 3.81640625 C14.91306641 3.90728516 14.91306641 3.90728516 16 4 C15.67 4.99 15.34 5.98 15 7 C5.09448819 7.58267717 5.09448819 7.58267717 1 4 C0.1875 1.8125 0.1875 1.8125 0 0 Z " fill="#194B75" transform="translate(293,283)"/>
<path d="M0 0 C0.99 0 1.98 0 3 0 C3 5.28 3 10.56 3 16 C2.01 16 1.02 16 0 16 C0 10.72 0 5.44 0 0 Z " fill="#0A406C" transform="translate(415,274)"/>
<path d="M0 0 C3.3 0 6.6 0 10 0 C9.67 1.32 9.34 2.64 9 4 C6.03 4 3.06 4 0 4 C0 2.68 0 1.36 0 0 Z " fill="#F5F8F9" transform="translate(398,283)"/>
<path d="M0 0 C2.97 0 5.94 0 9 0 C9 1.32 9 2.64 9 4 C6.03 4 3.06 4 0 4 C0 2.68 0 1.36 0 0 Z " fill="#E1E8ED" transform="translate(398,276)"/>
<path d="M0 0 C0.66 0 1.32 0 2 0 C5 5.75 5 5.75 5 8 C2.69 8 0.38 8 -2 8 C-1.125 2.25 -1.125 2.25 0 0 Z " fill="#DAE3EA" transform="translate(429,276)"/>
<path d="M0 0 C1.99954746 -0.04254356 4.00041636 -0.04080783 6 0 C7 1 7 1 7.0625 3.5625 C7.041875 4.366875 7.02125 5.17125 7 6 C6.34 6 5.68 6 5 6 C5.66 7.32 6.32 8.64 7 10 C4.11424181 9.60196439 3.17810487 9.20990931 1.25 6.9375 C0.8375 6.298125 0.425 5.65875 0 5 C1.65 5 3.3 5 5 5 C5 4.01 5 3.02 5 2 C3.35 2 1.7 2 0 2 C0 1.34 0 0.68 0 0 Z " fill="#164872" transform="translate(446,202)"/>
<path d="M0 0 C0.33 0 0.66 0 1 0 C1 2.64 1 5.28 1 8 C0.34 8 -0.32 8 -1 8 C-1.33 8.66 -1.66 9.32 -2 10 C-2.33 9.67 -2.66 9.34 -3 9 C-2.4 2.4 -2.4 2.4 0 0 Z " fill="#22547B" transform="translate(314,275)"/>
<path d="M0 0 C0.7425 1.1446875 0.7425 1.1446875 1.5 2.3125 C4.76726846 5.82481359 7.4628744 6.56324356 12 8 C12 8.33 12 8.66 12 9 C7.90075477 9.32150943 5.65644914 9.41384837 2.125 7.1875 C0 5 0 5 -1 2 C-0.67 1.34 -0.34 0.68 0 0 Z " fill="#0D3F6B" transform="translate(439,209)"/>
<path d="M0 0 C2.31 0 4.62 0 7 0 C7 0.99 7 1.98 7 3 C4.69 3 2.38 3 0 3 C0 2.01 0 1.02 0 0 Z " fill="#1C4D76" transform="translate(355,287)"/>
<path d="M0 0 C0 3 0 3 -1.3125 4.60546875 C-1.869375 5.12753906 -2.42625 5.64960938 -3 6.1875 C-3.556875 6.71730469 -4.11375 7.24710938 -4.6875 7.79296875 C-5.120625 8.19128906 -5.55375 8.58960938 -6 9 C-6.66 8.67 -7.32 8.34 -8 8 C-7.04578192 6.85073734 -6.08647955 5.70569459 -5.125 4.5625 C-4.59132812 3.92441406 -4.05765625 3.28632813 -3.5078125 2.62890625 C-2 1 -2 1 0 0 Z " fill="#0C4570" transform="translate(216,219)"/>
<path d="M0 0 C0.99 0.99 1.98 1.98 3 3 C2.67 3.99 2.34 4.98 2 6 C-0.97 6 -3.94 6 -7 6 C-7 5.67 -7 5.34 -7 5 C-4.69 5 -2.38 5 0 5 C-0.2784375 4.0409375 -0.2784375 4.0409375 -0.5625 3.0625 C-0.706875 2.381875 -0.85125 1.70125 -1 1 C-0.67 0.67 -0.34 0.34 0 0 Z " fill="#013765" transform="translate(434,279)"/>
<path d="M0 0 C1.42944945 2.35438733 2.08661261 3.48032433 1.625 6.25 C1.41875 6.8275 1.2125 7.405 1 8 C0.01 8 -0.98 8 -2 8 C-1.47731534 5.23723823 -0.89130413 2.6739124 0 0 Z " fill="#22527A" transform="translate(423,282)"/>
<path d="M0 0 C1.65 0 3.3 0 5 0 C4.67 1.32 4.34 2.64 4 4 C2.68 3.67 1.36 3.34 0 3 C0 2.01 0 1.02 0 0 Z " fill="#7DB932" transform="translate(365,179)"/>
<path d="M0 0 C0.66 0 1.32 0 2 0 C3.625 2 3.625 2 5 4 C4.01 4.66 3.02 5.32 2 6 C1.01 4.68 0.02 3.36 -1 2 C-0.67 1.34 -0.34 0.68 0 0 Z " fill="#104771" transform="translate(313,283)"/>
<path d="M0 0 C1.98 0 3.96 0 6 0 C6.33 1.65 6.66 3.3 7 5 C4.11424181 4.60196439 3.17810487 4.20990931 1.25 1.9375 C0.8375 1.298125 0.425 0.65875 0 0 Z " fill="#0E436E" transform="translate(446,207)"/>
</svg>
